<svg width="100" height="100" viewBox="0 0 100 100" fill="none" xmlns="http://www.w3.org/2000/svg">
  <g clip-path="url(#clip0_386_117)">
    <path
      d="M46.56 0H52.26C64.52 0.83 76.55 6 85.06 14.96C94.34 24.41 99.62 37.72 99.09 50.98C98.76 68.29 88.51 84.92 73.2 93C58.86 101.07 40.64 100.83 26.18 93.18C24.99 94.88 23.75 96.56 22.2 97.96C22.04 98.47 21.72 99.49 21.56 100H20.47C18.09 90.67 14.07 81.71 11.08 72.51C20.76 73.53 30.45 74.47 40.13 75.48C38.33 77.83 36.32 80.03 34.84 82.6C41.55 85.22 48.92 86.31 56.05 84.99C68.35 82.88 79.12 73.84 83.41 62.13C87.83 50.5 85.67 36.61 77.76 26.98C72.39 20.22 64.52 15.49 56.02 14.02C46.49 12.22 36.29 14.58 28.49 20.33C20.92 25.69 15.73 34.13 14.08 43.23C9.65002 42.6 5.25002 41.72 0.830017 40.97C2.27002 33.38 5.26002 26.03 9.96002 19.87C18.5 8.31 32.26 1 46.56 0Z"
      fill="#FFFAEE" />
    <path
      d="M44.03 25.25C46.97 25.27 49.92 25.27 52.86 25.25C52.86 32.61 52.86 39.97 52.86 47.32C60.22 47.31 67.58 47.37 74.94 47.29C75.04 50.28 75 53.27 75 56.26C64.67 56.27 54.33 56.27 44 56.26C44.02 45.93 43.96 35.59 44.03 25.25Z"
      fill="#FFFAEE" />
  </g>
  <defs>
    <clipPath id="clip0_386_117">
      <rect width="100" height="100" fill="white" />
    </clipPath>
  </defs>
</svg>