<svg width="100" height="100" viewBox="0 0 100 100" fill="none" xmlns="http://www.w3.org/2000/svg">
  <circle cx="50" cy="50" r="50" fill="#FF0B0B" />
  <path
    d="M38.4509 20.907C38.4509 19.3382 39.8238 17.9647 41.3295 18.0027C47.1112 17.9984 52.8928 17.9999 58.6745 18.0027C60.1842 17.9675 61.5477 19.3452 61.5477 20.9126C61.564 22.9412 61.5464 24.9697 61.5545 26.9982C65.1535 26.9954 68.7511 26.9997 72.3488 26.9968C72.8836 26.9997 73.432 26.9589 73.9492 27.129C75.0595 27.4636 75.9071 28.553 75.9843 29.7508C76.1644 31.4138 74.7684 33.0122 73.1585 32.9911C57.9907 33.0023 42.8243 32.9911 27.6566 32.9967C26.9796 33.0023 26.266 33.0333 25.6459 32.7001C24.5383 32.1687 23.8464 30.8557 24.0292 29.5989C24.1822 28.1693 25.4536 26.9926 26.8415 27.0011C30.7086 26.9926 34.5757 26.9996 38.4441 26.9982C38.4522 24.9669 38.4346 22.9369 38.4509 20.907ZM44.2217 23.9997C44.2231 24.9992 44.2203 25.9987 44.2231 26.9982C48.0739 26.9968 51.9247 26.9968 55.7756 26.9982C55.7783 25.9987 55.7756 24.9992 55.7769 23.9997C51.9247 23.9983 48.0739 23.9983 44.2217 23.9997Z"
    fill="#FFFAEE" />
  <path
    d="M28.8959 35.1783C30.2556 34.6414 31.9213 35.3628 32.4941 36.7299C32.8188 37.4224 32.7461 38.2072 32.7501 38.952C32.7501 49.5077 32.7488 60.0633 32.7515 70.6203C32.7663 71.8952 33.238 73.1563 34.0479 74.1256C35.0802 75.3826 36.669 76.1439 38.2781 76.1246C46.093 76.1219 53.908 76.1233 61.7229 76.1233C62.8845 76.1329 64.0435 75.7488 64.9815 75.048C66.3951 74.0127 67.2724 72.2587 67.2509 70.4799C67.2482 59.9243 67.2509 49.3672 67.2495 38.8116C67.2536 38.2471 67.2091 37.6689 67.3641 37.1195C67.6471 36.0966 68.5163 35.2719 69.5392 35.0668C70.4704 34.8603 71.4946 35.1714 72.1617 35.8708C72.7034 36.4215 73.0066 37.198 72.9985 37.9786C73.0012 48.8124 72.9985 59.6462 72.9999 70.4813C73.0107 72.8837 72.2546 75.2821 70.8706 77.2261C68.8303 80.1531 65.3844 81.9883 61.8644 81.9965C54.4955 81.9993 47.1253 81.9965 39.7565 81.9979C38.7659 81.9869 37.77 82.0434 36.7863 81.9002C33.9724 81.5367 31.3284 80.0195 29.54 77.774C27.9296 75.7791 27.0132 73.2114 27.0011 70.6231C26.9998 59.7439 26.9998 48.8633 27.0011 37.9828C26.9661 36.7588 27.7679 35.5831 28.8959 35.1783Z"
    fill="#FFFAEE" />
  <path
    d="M43.3108 41.0767C44.2803 40.8519 45.3538 41.1295 46.069 41.7999C46.6844 42.3566 47.0189 43.1691 46.9992 43.9804C46.9978 50.6639 46.9992 57.3475 46.9992 64.0311C47.0189 64.9019 46.6226 65.7741 45.9215 66.328C45.1318 66.9767 43.9824 67.1758 43.0073 66.8372C42.0363 66.5149 41.272 65.6806 41.0696 64.7096C40.9811 64.2613 41.0022 63.8036 41.0022 63.3512C41.0092 56.8451 40.9966 50.3389 41.0092 43.8341C41.0036 42.5489 42.0125 41.353 43.3108 41.0767Z"
    fill="#FFFAEE" />
  <path
    d="M55.2644 41.0879C56.2679 40.8373 57.3937 41.1325 58.1203 41.8477C58.7022 42.3989 59.0142 43.1858 58.9987 43.9713C58.9987 50.6539 58.9987 57.3364 58.9987 64.0202C59.0282 64.971 58.5504 65.9177 57.7408 66.4649C56.7823 67.1407 55.4007 67.1814 54.4043 66.5584C53.5132 66.0288 52.9665 65.0293 53.0016 64.0216C53.0044 57.293 52.9974 50.5658 53.0058 43.8372C53.003 42.5668 53.984 41.3818 55.2644 41.0879Z"
    fill="#FFFAEE" />
</svg>