<svg width="100" height="100" viewBox="0 0 100 100" fill="none" xmlns="http://www.w3.org/2000/svg">
  <circle cx="50" cy="50" r="50" fill="#B78BFF" />
  <path
    d="M22.4178 24.964C23.9566 22.5768 26.7092 21.0153 29.553 21.0031C37.3515 20.999 45.1487 20.999 52.9459 21.0031C54.1095 21.0003 55.216 21.7865 55.6102 22.8807C55.9759 23.8276 55.7937 24.9599 55.1453 25.7407C54.5866 26.4396 53.6963 26.8361 52.8059 26.813C45.0998 26.8171 37.3937 26.8116 29.6876 26.8157C28.1583 26.7789 26.784 28.1442 26.803 29.6757C26.7949 42.9837 26.803 56.2931 26.799 69.6011C26.7976 70.2661 26.7527 70.965 27.0464 71.5823C27.5058 72.6655 28.6653 73.3768 29.8357 73.3223C43.3381 73.3195 56.8418 73.3291 70.3455 73.3182C71.8761 73.3304 73.2314 71.9502 73.196 70.4173C73.2055 62.648 73.192 54.8801 73.2028 47.1109C73.2015 45.999 73.9138 44.9363 74.9306 44.4989C75.8902 44.0669 77.0797 44.2182 77.8994 44.8804C78.6157 45.439 79.0222 46.3465 78.9991 47.2512C78.9977 54.9742 79.0004 62.6971 78.9977 70.42C79.0004 72.3657 78.3289 74.3074 77.1082 75.8239C75.8196 77.4699 73.9246 78.6062 71.8775 79H28.1692C25.7563 78.5749 23.5692 77.0625 22.2927 74.9709C21.5166 73.7419 21.0992 72.3085 21 70.8629V29.2601C21.106 27.7395 21.5668 26.2339 22.4178 24.964Z"
    fill="#FFFAEE" />
  <path
    d="M72.8701 18.5707C74.9311 17.6189 77.4886 17.872 79.3147 19.2222C80.9179 20.3678 81.923 22.2762 81.986 24.2428V24.5915C81.9472 25.7843 81.5985 26.971 80.9397 27.9688C80.5535 28.5755 80.0352 29.0792 79.529 29.5818C78.5251 30.5832 77.5249 31.5895 76.5198 32.5885C73.4755 29.5467 70.4324 26.5036 67.3906 23.4593C68.4695 22.3731 69.5557 21.2953 70.6359 20.2103C71.2777 19.5395 72.0139 18.9437 72.8701 18.5707Z"
    fill="#FFFAEE" />
  <path
    d="M44.2362 46.6124C51.0417 39.8094 57.8435 33.0015 64.6526 26.2008C67.6957 29.2427 70.74 32.2846 73.7807 35.3289C67.0031 42.121 60.2109 48.8986 53.4297 55.6872C53.1875 55.9572 52.8484 56.1098 52.4948 56.1679C49.7242 56.7116 46.9572 57.2759 44.1866 57.8245C43.7591 57.8996 43.3099 58.0594 42.8812 57.9056C42.2612 57.7119 41.8725 57.0071 42.0384 56.3786C42.6354 53.3852 43.2348 50.3917 43.833 47.3983C43.8814 47.1016 44.0158 46.8207 44.2362 46.6124Z"
    fill="#FFFAEE" />
</svg>