<?xml version="1.0" encoding="UTF-8" ?>
<!DOCTYPE svg PUBLIC "-//W3C//DTD SVG 1.1//EN" "http://www.w3.org/Graphics/SVG/1.1/DTD/svg11.dtd">
<svg width="512pt" height="512pt" viewBox="0 0 512 512" version="1.1"
  xmlns="http://www.w3.org/2000/svg">
  <g id="#FFFAEEff">
    <path fill="#FFFAEE" opacity="1.00" d=" M 219.84 98.95 C 263.02 93.31 307.53 97.85 348.57 112.52 C 413.29 135.41 468.97 181.07 506.86 238.02 C 509.95 242.89 511.56 248.56 512.00 254.28 L 512.00 258.49 C 511.35 263.91 509.84 269.31 506.88 273.95 C 468.94 330.95 413.19 376.68 348.37 399.52 C 293.63 419.06 232.66 420.61 177.00 403.84 C 106.59 382.85 45.60 334.84 5.11 273.94 C 2.16 269.33 0.64 263.96 0.00 258.57 L 0.00 253.48 C 0.63 247.83 2.30 242.24 5.47 237.48 C 27.09 205.24 54.24 176.67 85.62 153.78 C 125.04 125.03 171.35 105.32 219.84 98.95 M 250.30 148.44 C 220.47 149.92 191.52 164.46 172.74 187.70 C 157.40 206.21 148.70 230.05 148.31 254.07 C 147.85 278.17 155.67 302.40 170.48 321.44 C 184.95 340.47 205.98 354.36 229.13 360.28 C 251.12 366.07 274.92 364.47 296.00 356.01 C 321.16 346.07 342.17 326.20 353.55 301.66 C 364.12 279.21 366.61 253.04 360.26 229.03 C 354.28 205.69 340.18 184.51 320.90 170.06 C 300.94 154.73 275.39 147.09 250.30 148.44 Z" />
    <path fill="#FFFAEE" opacity="1.00" d=" M 251.34 186.42 C 266.11 185.41 281.18 189.23 293.63 197.27 C 307.49 206.13 318.05 220.05 322.76 235.83 C 327.32 250.85 326.60 267.41 320.72 281.96 C 314.58 297.37 302.73 310.38 288.00 317.96 C 274.88 324.79 259.54 327.20 244.95 324.85 C 228.88 322.36 213.88 313.90 203.27 301.61 C 192.80 289.60 186.66 273.91 186.30 257.97 C 185.76 241.85 191.11 225.64 201.11 212.98 C 213.11 197.57 231.81 187.58 251.34 186.42 Z" />
  </g>
</svg>
