<?xml version="1.0" encoding="UTF-8"?>
<!DOCTYPE svg PUBLIC "-//W3C//DTD SVG 1.1//EN" "http://www.w3.org/Graphics/SVG/1.1/DTD/svg11.dtd">
<svg width="512pt" height="512pt" viewBox="0 0 512 512" version="1.1"
  xmlns="http://www.w3.org/2000/svg">
  <g id="#FFFAEEff">
    <path fill="#FFFAEE" opacity="1.00" d=" M 60.98 99.05 C 63.32 92.67 69.30 87.78 76.05 86.88 C 82.02 85.94 88.30 88.15 92.49 92.49 C 199.97 199.98 307.47 307.46 414.96 414.95 C 418.28 418.29 422.12 421.48 423.77 426.05 C 426.63 433.12 424.63 441.79 418.96 446.89 C 413.80 451.76 405.82 453.28 399.24 450.65 C 395.81 449.44 393.10 446.91 390.61 444.35 C 375.96 429.61 361.18 414.98 346.55 400.21 C 290.26 419.69 227.63 420.51 170.97 401.97 C 103.09 380.08 44.47 333.14 5.12 274.00 C 2.31 269.67 0.92 264.63 0.00 259.60 L 0.00 252.46 C 0.98 246.72 2.85 241.07 6.27 236.31 C 29.61 201.63 59.63 171.53 94.07 147.84 C 84.44 138.15 74.73 128.54 65.11 118.84 C 60.06 113.76 58.43 105.72 60.98 99.05 M 157.52 212.35 C 142.68 245.06 145.99 285.09 165.89 314.98 C 181.81 339.51 208.14 356.92 236.94 361.99 C 257.99 365.85 280.13 363.15 299.71 354.53 C 299.71 354.25 299.71 353.70 299.71 353.42 C 290.10 343.70 280.27 334.19 270.79 324.35 C 260.16 326.15 249.15 326.35 238.67 323.52 C 218.92 318.55 201.75 304.43 193.07 286.01 C 186.33 272.19 184.82 256.24 187.66 241.21 C 178.37 232.25 169.34 223.02 160.22 213.87 C 159.46 213.38 158.51 211.44 157.52 212.35 Z" />
    <path fill="#FFFAEE" opacity="1.00" d=" M 165.68 111.86 C 215.21 94.48 269.80 91.97 320.80 104.27 C 357.15 113.08 391.62 129.19 422.14 150.76 C 454.36 173.40 482.24 202.07 504.52 234.51 C 507.02 238.25 509.69 242.08 510.49 246.61 C 511.08 248.78 510.75 251.22 512.00 253.19 L 512.00 258.56 C 511.32 264.20 509.65 269.79 506.49 274.56 C 483.06 309.72 452.79 340.26 417.95 364.17 C 396.64 343.01 375.49 321.68 354.20 300.50 C 358.56 290.48 361.68 279.90 362.95 269.04 C 366.33 242.08 358.94 213.96 342.77 192.12 C 327.69 171.51 305.05 156.57 280.10 151.01 C 257.37 145.68 232.89 148.05 211.67 157.80 C 196.22 142.61 180.94 127.24 165.68 111.86 Z" />
    <path fill="#FFFAEE" opacity="1.00" d=" M 251.29 186.43 C 266.84 185.35 282.70 189.66 295.51 198.55 C 308.82 207.64 318.76 221.52 323.10 237.04 C 326.12 247.61 326.45 258.87 324.43 269.66 C 324.20 269.68 323.73 269.71 323.50 269.73 C 296.41 242.66 269.34 215.56 242.23 188.50 C 242.26 188.27 242.30 187.80 242.33 187.56 C 245.29 186.99 248.29 186.68 251.29 186.43 Z" />
  </g>
</svg>
