<?xml version="1.0" encoding="UTF-8"?>
<!DOCTYPE svg PUBLIC "-//W3C//DTD SVG 1.1//EN" "http://www.w3.org/Graphics/SVG/1.1/DTD/svg11.dtd">
<svg width="400pt" height="400pt" viewBox="0 0 400 400" version="1.1"
    xmlns="http://www.w3.org/2000/svg">
    <g id="#6ce79aff">
        <path fill="#6ce79a" opacity="1.00"
            d=" M 325.07 7.05 C 335.03 1.51 346.82 0.22 357.98 1.83 L 358.22 2.08 C 361.57 6.31 365.64 9.98 368.47 14.61 C 375.58 25.85 378.31 39.98 375.15 52.97 C 371.46 70.48 357.69 85.35 340.59 90.53 C 333.48 92.97 325.91 92.95 318.49 92.72 C 307.55 84.64 300.40 71.98 298.44 58.59 C 298.17 54.37 298.09 50.13 298.44 45.91 C 300.36 29.68 310.56 14.64 325.07 7.05 M 362.01 36.02 C 355.74 43.06 349.26 49.90 342.94 56.89 C 339.86 54.00 337.06 50.83 333.97 47.96 C 331.85 45.77 328.05 45.89 325.86 47.91 C 323.43 50.23 323.46 54.67 325.97 56.92 C 330.35 61.27 334.59 65.77 339.03 70.06 C 341.29 72.47 345.52 72.12 347.55 69.58 C 355.53 61.19 363.22 52.53 371.11 44.05 C 372.45 42.61 373.91 41.09 374.24 39.06 C 374.70 35.54 371.47 32.05 367.93 32.29 C 365.37 32.23 363.64 34.37 362.01 36.02 Z" />
        <path fill="#6ce79a" opacity="1.00"
            d=" M 0.00 131.44 C 0.82 129.38 2.54 127.43 4.96 127.63 C 18.24 127.49 31.53 127.64 44.81 127.58 C 61.62 127.56 78.43 127.62 95.24 127.54 C 103.24 127.64 111.24 127.55 119.25 127.57 C 166.27 127.58 213.29 127.60 260.31 127.56 C 275.12 127.57 289.93 127.62 304.73 127.54 C 321.60 127.62 338.46 127.56 355.32 127.58 C 362.61 127.54 369.91 127.69 377.20 127.48 C 381.38 130.33 380.34 135.64 380.41 139.99 C 380.30 180.28 380.49 220.58 380.31 260.87 C 371.96 261.01 363.59 260.58 355.25 261.20 C 305.53 261.56 255.78 261.25 206.05 261.35 C 202.03 261.35 198.01 261.35 193.99 261.35 C 148.01 261.36 102.02 261.35 56.04 261.35 C 52.28 261.39 48.52 261.42 44.77 261.20 C 29.85 260.70 14.92 260.89 0.00 260.97 L 0.00 131.44 M 135.45 164.60 C 129.00 165.43 122.75 169.74 120.72 176.08 C 118.21 182.70 121.06 191.12 127.41 194.45 C 132.91 197.33 138.97 198.95 144.54 201.68 C 146.65 202.85 149.52 205.22 148.17 207.92 C 145.93 212.87 139.48 213.31 134.90 211.90 C 130.96 210.98 128.36 207.72 125.06 205.68 C 119.79 203.75 114.94 210.29 118.12 214.80 C 124.47 222.43 135.31 226.04 145.02 224.12 C 151.78 222.66 158.07 217.72 159.85 210.84 C 161.74 204.70 159.28 197.72 154.34 193.75 C 148.03 188.55 139.54 187.49 132.63 183.37 C 130.69 181.16 132.59 177.88 135.06 177.10 C 139.05 175.71 143.65 176.55 147.19 178.78 C 149.52 180.14 152.10 182.22 154.95 180.95 C 159.28 179.66 160.29 173.04 156.58 170.53 C 150.70 165.87 142.92 163.50 135.45 164.60 M 169.39 164.50 C 164.74 165.07 163.10 171.59 166.43 174.61 C 169.54 177.39 173.99 176.27 177.77 176.44 C 177.86 189.95 177.79 203.47 177.80 216.99 C 177.73 219.38 178.25 222.02 180.37 223.46 C 183.79 226.43 190.01 223.61 189.84 219.02 C 190.14 204.82 189.51 190.60 190.16 176.41 C 193.56 176.26 197.33 177.20 200.43 175.42 C 203.91 173.64 204.25 168.22 201.32 165.77 C 199.01 163.81 195.80 164.41 193.03 164.29 C 185.15 164.49 177.25 164.03 169.39 164.50 M 227.41 164.67 C 217.62 166.01 208.84 172.68 204.67 181.60 C 200.26 190.74 200.95 202.07 206.45 210.60 C 213.78 222.56 229.96 228.00 242.97 222.56 C 256.77 217.46 265.16 201.27 261.15 187.07 C 257.83 172.37 242.26 162.04 227.41 164.67 M 294.41 164.62 C 284.80 165.80 276.19 172.18 271.78 180.73 C 265.99 191.75 267.98 206.38 276.83 215.22 C 285.98 225.27 302.77 228.03 313.99 219.88 C 316.73 217.65 320.45 215.03 319.71 210.97 C 319.58 206.82 313.96 204.08 310.70 206.76 C 307.79 209.11 305.05 212.26 301.01 212.42 C 290.80 214.13 280.57 205.34 280.53 195.04 C 279.92 185.06 289.04 175.80 299.05 176.44 C 303.44 176.20 307.14 178.68 310.96 180.39 C 316.33 181.87 320.74 174.24 316.60 170.43 C 310.60 165.28 302.12 163.63 294.41 164.62 M 38.29 165.36 C 36.01 166.69 35.63 169.55 35.66 171.95 C 35.68 186.96 35.68 201.96 35.66 216.97 C 35.56 219.43 36.09 222.21 38.34 223.62 C 41.86 226.31 47.71 223.54 47.59 219.04 C 47.70 202.69 47.69 186.32 47.60 169.97 C 47.83 165.36 41.84 162.71 38.29 165.36 M 56.20 170.01 C 56.00 178.68 56.44 187.36 55.94 196.03 C 55.91 202.01 56.50 207.99 56.03 213.98 C 55.87 217.21 55.48 221.25 58.41 223.46 C 61.88 226.40 67.97 223.64 67.99 219.09 C 68.32 209.36 67.87 199.63 68.21 189.90 C 74.96 199.75 81.80 209.54 88.52 219.40 C 89.74 221.07 91.00 222.96 93.04 223.69 C 96.79 225.45 101.80 222.19 101.72 218.05 C 101.86 203.39 101.59 188.72 101.61 174.05 C 101.50 171.59 101.96 168.80 100.26 166.74 C 97.67 162.64 90.15 164.07 89.64 169.07 C 89.17 179.13 89.94 189.23 89.59 199.30 C 82.56 189.95 76.22 180.09 69.48 170.52 C 67.71 168.17 66.23 164.80 62.93 164.46 C 59.63 163.90 55.97 166.50 56.20 170.01 M 324.67 169.99 C 324.47 185.31 324.69 200.65 324.57 215.97 C 324.58 218.50 324.44 221.58 326.78 223.21 C 329.92 226.25 335.65 224.19 336.47 220.01 C 336.97 215.56 336.50 211.06 336.79 206.60 C 341.75 210.49 345.95 215.23 350.54 219.54 C 352.76 221.52 354.73 224.46 357.97 224.64 C 361.86 225.04 365.38 220.71 364.16 216.98 C 363.49 215.10 361.90 213.78 360.55 212.38 C 354.04 206.15 347.71 199.75 341.08 193.64 C 347.31 187.32 354.17 181.65 360.55 175.48 C 362.84 173.57 363.37 169.81 361.51 167.45 C 359.71 164.49 355.00 164.23 352.57 166.51 C 347.25 171.21 342.15 176.16 336.81 180.83 C 336.19 176.33 337.68 171.40 335.73 167.18 C 333.17 162.19 324.46 164.30 324.67 169.99 Z" />
        <path fill="#6ce79a" opacity="1.00"
            d=" M 225.44 177.55 C 228.46 176.39 231.78 176.22 234.96 176.64 C 243.25 177.84 250.07 185.59 250.03 194.01 C 250.46 202.04 244.72 209.68 237.06 211.88 C 227.82 214.85 217.04 208.90 214.58 199.54 C 211.70 190.83 216.93 180.70 225.44 177.55 Z" />
    </g>
    <g id="#00d4a2ff">
        <path fill="#00d4a2" opacity="1.00"
            d=" M 358.22 2.08 C 381.31 5.44 399.54 27.11 400.00 50.28 L 400.00 54.71 C 399.23 66.89 394.17 78.82 385.54 87.50 C 377.59 95.78 366.71 101.18 355.33 102.56 C 352.39 102.77 349.44 102.88 346.50 102.80 C 340.68 102.66 334.97 101.21 329.58 99.08 C 325.65 97.38 321.93 95.24 318.49 92.72 C 325.91 92.95 333.48 92.97 340.59 90.53 C 357.69 85.35 371.46 70.48 375.15 52.97 C 378.31 39.98 375.58 25.85 368.47 14.61 C 365.64 9.98 361.57 6.31 358.22 2.08 Z" />
        <path fill="#00d4a2" opacity="1.00"
            d=" M 377.20 127.48 C 383.43 127.50 389.68 127.25 395.91 127.56 C 397.92 127.69 399.28 129.30 400.00 131.05 L 400.00 261.30 C 385.06 272.45 370.36 283.92 355.30 294.90 C 355.19 283.66 355.28 272.43 355.25 261.20 C 363.59 260.58 371.96 261.01 380.31 260.87 C 380.49 220.58 380.30 180.28 380.41 139.99 C 380.34 135.64 381.38 130.33 377.20 127.48 Z" />
        <path fill="#00d4a2" opacity="1.00"
            d=" M 0.00 260.97 C 14.92 260.89 29.85 260.70 44.77 261.20 C 44.70 272.43 44.82 283.66 44.70 294.88 C 29.69 283.78 14.82 272.48 0.00 261.13 L 0.00 260.97 Z" />
    </g>
    <g id="#ffab56ff">
        <path fill="#ffab56" opacity="1.00"
            d=" M 188.53 8.36 C 191.63 6.65 194.56 4.47 198.05 3.62 C 201.27 2.92 204.43 4.24 207.17 5.81 C 237.58 23.42 268.06 40.93 298.44 58.59 C 300.40 71.98 307.55 84.64 318.49 92.72 C 321.93 95.24 325.65 97.38 329.58 99.08 C 315.57 107.30 301.43 115.28 287.45 123.53 C 285.21 124.75 282.52 126.83 280.06 124.89 C 231.26 96.54 182.22 68.58 133.51 40.07 C 151.90 29.59 170.18 18.92 188.53 8.36 Z" />
        <path fill="#ffab56" opacity="1.00"
            d=" M 51.20 87.67 C 74.84 73.99 98.49 60.33 122.16 46.71 C 125.71 50.08 130.10 52.25 134.33 54.62 C 176.26 79.04 218.44 103.03 260.31 127.56 C 213.29 127.60 166.27 127.58 119.25 127.57 C 96.87 113.76 73.57 101.49 51.20 87.67 Z" />
        <path fill="#ffab56" opacity="1.00"
            d=" M 45.77 98.98 C 62.32 108.39 78.87 117.81 95.24 127.54 C 78.43 127.62 61.62 127.56 44.81 127.58 L 44.82 127.35 C 46.57 118.01 44.89 108.42 45.77 98.98 Z" />
        <path fill="#ffab56" opacity="1.00"
            d=" M 346.50 102.80 C 349.44 102.88 352.39 102.77 355.33 102.56 C 355.33 110.90 355.34 119.24 355.32 127.58 C 338.46 127.56 321.60 127.62 304.73 127.54 C 316.46 120.68 328.20 113.83 340.05 107.17 C 342.31 105.89 344.44 104.40 346.50 102.80 Z" />
        <path fill="#ffab56" opacity="1.00"
            d=" M 44.77 261.20 C 48.52 261.42 52.28 261.39 56.04 261.35 C 102.02 261.35 148.01 261.36 193.99 261.35 C 193.76 303.24 193.98 345.12 193.87 387.01 C 193.85 390.46 194.19 393.90 194.68 397.32 C 146.59 369.44 98.37 341.77 50.29 313.86 C 43.57 310.04 44.57 301.44 44.70 294.88 C 44.82 283.66 44.70 272.43 44.77 261.20 M 119.34 311.36 C 115.70 313.63 115.67 319.27 119.42 321.45 C 134.36 330.26 149.46 338.79 164.43 347.56 C 166.95 349.26 170.84 349.34 172.85 346.79 C 175.71 343.94 174.33 338.82 170.79 337.24 C 155.97 328.70 141.16 320.11 126.33 311.60 C 124.26 310.23 121.45 309.82 119.34 311.36 Z" />
        <path fill="#ffab56" opacity="1.00"
            d=" M 206.05 261.35 C 255.78 261.25 305.53 261.56 355.25 261.20 C 355.28 272.43 355.19 283.66 355.30 294.90 C 355.32 301.24 356.58 309.35 350.41 313.42 C 339.21 320.24 327.64 326.48 316.43 333.29 C 316.35 319.18 316.38 305.06 316.42 290.95 C 316.39 289.59 316.26 288.24 316.02 286.91 C 313.77 285.67 311.63 287.79 309.67 288.68 C 285.03 303.49 259.92 317.50 235.18 332.14 C 235.10 348.16 235.16 364.19 235.16 380.21 C 225.11 385.76 215.27 391.66 205.31 397.35 C 206.67 389.31 205.93 381.15 206.08 373.04 C 206.12 335.81 206.12 298.58 206.05 261.35 Z" />
    </g>
    <g id="#f4f8f9ff">
        <path fill="#f4f8f9" opacity="1.00"
            d=" M 362.01 36.02 C 363.64 34.37 365.37 32.23 367.93 32.29 C 371.47 32.05 374.70 35.54 374.24 39.06 C 373.91 41.09 372.45 42.61 371.11 44.05 C 363.22 52.53 355.53 61.19 347.55 69.58 C 345.52 72.12 341.29 72.47 339.03 70.06 C 334.59 65.77 330.35 61.27 325.97 56.92 C 323.46 54.67 323.43 50.23 325.86 47.91 C 328.05 45.89 331.85 45.77 333.97 47.96 C 337.06 50.83 339.86 54.00 342.94 56.89 C 349.26 49.90 355.74 43.06 362.01 36.02 Z" />
        <path fill="#f4f8f9" opacity="1.00"
            d=" M 135.45 164.60 C 142.92 163.50 150.70 165.87 156.58 170.53 C 160.29 173.04 159.28 179.66 154.95 180.95 C 152.10 182.22 149.52 180.14 147.19 178.78 C 143.65 176.55 139.05 175.71 135.06 177.10 C 132.59 177.88 130.69 181.16 132.63 183.37 C 139.54 187.49 148.03 188.55 154.34 193.75 C 159.28 197.72 161.74 204.70 159.85 210.84 C 158.07 217.72 151.78 222.66 145.02 224.12 C 135.31 226.04 124.47 222.43 118.12 214.80 C 114.94 210.29 119.79 203.75 125.06 205.68 C 128.36 207.72 130.96 210.98 134.90 211.90 C 139.48 213.31 145.93 212.87 148.17 207.92 C 149.52 205.22 146.65 202.85 144.54 201.68 C 138.97 198.95 132.91 197.33 127.41 194.45 C 121.06 191.12 118.21 182.70 120.72 176.08 C 122.75 169.74 129.00 165.43 135.45 164.60 Z" />
        <path fill="#f4f8f9" opacity="1.00"
            d=" M 169.39 164.50 C 177.25 164.03 185.15 164.49 193.03 164.29 C 195.80 164.41 199.01 163.81 201.32 165.77 C 204.25 168.22 203.91 173.64 200.43 175.42 C 197.33 177.20 193.56 176.26 190.16 176.41 C 189.51 190.60 190.14 204.82 189.84 219.02 C 190.01 223.61 183.79 226.43 180.37 223.46 C 178.25 222.02 177.73 219.38 177.80 216.99 C 177.79 203.47 177.86 189.95 177.77 176.44 C 173.99 176.27 169.54 177.39 166.43 174.61 C 163.10 171.59 164.74 165.07 169.39 164.50 Z" />
        <path fill="#f4f8f9" opacity="1.00"
            d=" M 227.41 164.67 C 242.26 162.04 257.83 172.37 261.15 187.07 C 265.16 201.27 256.77 217.46 242.97 222.56 C 229.96 228.00 213.78 222.56 206.45 210.60 C 200.95 202.07 200.26 190.74 204.67 181.60 C 208.84 172.68 217.62 166.01 227.41 164.67 M 225.44 177.55 C 216.93 180.70 211.70 190.83 214.58 199.54 C 217.04 208.90 227.82 214.85 237.06 211.88 C 244.72 209.68 250.46 202.04 250.03 194.01 C 250.07 185.59 243.25 177.84 234.96 176.64 C 231.78 176.22 228.46 176.39 225.44 177.55 Z" />
        <path fill="#f4f8f9" opacity="1.00"
            d=" M 294.41 164.62 C 302.12 163.63 310.60 165.28 316.60 170.43 C 320.74 174.24 316.33 181.87 310.96 180.39 C 307.14 178.68 303.44 176.20 299.05 176.44 C 289.04 175.80 279.92 185.06 280.53 195.04 C 280.57 205.34 290.80 214.13 301.01 212.42 C 305.05 212.26 307.79 209.11 310.70 206.76 C 313.96 204.08 319.58 206.82 319.71 210.97 C 320.45 215.03 316.73 217.65 313.99 219.88 C 302.77 228.03 285.98 225.27 276.83 215.22 C 267.98 206.38 265.99 191.75 271.78 180.73 C 276.19 172.18 284.80 165.80 294.41 164.62 Z" />
        <path fill="#f4f8f9" opacity="1.00"
            d=" M 38.29 165.36 C 41.84 162.71 47.83 165.36 47.60 169.97 C 47.69 186.32 47.70 202.69 47.59 219.04 C 47.71 223.54 41.86 226.31 38.34 223.62 C 36.09 222.21 35.56 219.43 35.66 216.97 C 35.68 201.96 35.68 186.96 35.66 171.95 C 35.63 169.55 36.01 166.69 38.29 165.36 Z" />
        <path fill="#f4f8f9" opacity="1.00"
            d=" M 56.20 170.01 C 55.97 166.50 59.63 163.90 62.93 164.46 C 66.23 164.80 67.71 168.17 69.48 170.52 C 76.22 180.09 82.56 189.95 89.59 199.30 C 89.94 189.23 89.17 179.13 89.64 169.07 C 90.15 164.07 97.67 162.64 100.26 166.74 C 101.96 168.80 101.50 171.59 101.61 174.05 C 101.59 188.72 101.86 203.39 101.72 218.05 C 101.80 222.19 96.79 225.45 93.04 223.69 C 91.00 222.96 89.74 221.07 88.52 219.40 C 81.80 209.54 74.96 199.75 68.21 189.90 C 67.87 199.63 68.32 209.36 67.99 219.09 C 67.97 223.64 61.88 226.40 58.41 223.46 C 55.48 221.25 55.87 217.21 56.03 213.98 C 56.50 207.99 55.91 202.01 55.94 196.03 C 56.44 187.36 56.00 178.68 56.20 170.01 Z" />
        <path fill="#f4f8f9" opacity="1.00"
            d=" M 324.67 169.99 C 324.46 164.30 333.17 162.19 335.73 167.18 C 337.68 171.40 336.19 176.33 336.81 180.83 C 342.15 176.16 347.25 171.21 352.57 166.51 C 355.00 164.23 359.71 164.49 361.51 167.45 C 363.37 169.81 362.84 173.57 360.55 175.48 C 354.17 181.65 347.31 187.32 341.08 193.64 C 347.71 199.75 354.04 206.15 360.55 212.38 C 361.90 213.78 363.49 215.10 364.16 216.98 C 365.38 220.71 361.86 225.04 357.97 224.64 C 354.73 224.46 352.76 221.52 350.54 219.54 C 345.95 215.23 341.75 210.49 336.79 206.60 C 336.50 211.06 336.97 215.56 336.47 220.01 C 335.65 224.19 329.92 226.25 326.78 223.21 C 324.44 221.58 324.58 218.50 324.57 215.97 C 324.69 200.65 324.47 185.31 324.67 169.99 Z" />
        <path fill="#f4f8f9" opacity="1.00"
            d=" M 119.34 311.36 C 121.45 309.82 124.26 310.23 126.33 311.60 C 141.16 320.11 155.97 328.70 170.79 337.24 C 174.33 338.82 175.71 343.94 172.85 346.79 C 170.84 349.34 166.95 349.26 164.43 347.56 C 149.46 338.79 134.36 330.26 119.42 321.45 C 115.67 319.27 115.70 313.63 119.34 311.36 Z" />
    </g>
    <g id="#ff982aff">
        <path fill="#ff982a" opacity="1.00"
            d=" M 123.92 39.89 C 126.44 36.90 130.67 38.40 133.51 40.07 C 182.22 68.58 231.26 96.54 280.06 124.89 C 282.52 126.83 285.21 124.75 287.45 123.53 C 301.43 115.28 315.57 107.30 329.58 99.08 C 334.97 101.21 340.68 102.66 346.50 102.80 C 344.44 104.40 342.31 105.89 340.05 107.17 C 328.20 113.83 316.46 120.68 304.73 127.54 C 289.93 127.62 275.12 127.57 260.31 127.56 C 218.44 103.03 176.26 79.04 134.33 54.62 C 130.10 52.25 125.71 50.08 122.16 46.71 C 122.37 44.39 121.80 41.52 123.92 39.89 Z" />
        <path fill="#ff982a" opacity="1.00"
            d=" M 44.65 87.66 C 46.75 86.83 49.06 87.24 51.20 87.67 C 73.57 101.49 96.87 113.76 119.25 127.57 C 111.24 127.55 103.24 127.64 95.24 127.54 C 78.87 117.81 62.32 108.39 45.77 98.98 C 44.89 108.42 46.57 118.01 44.82 127.35 C 44.44 117.77 44.84 108.18 44.58 98.59 C 43.60 97.31 42.55 96.05 41.81 94.61 C 40.93 92.00 42.50 89.12 44.65 87.66 Z" />
        <path fill="#ff982a" opacity="1.00"
            d=" M 193.99 261.35 C 198.01 261.35 202.03 261.35 206.05 261.35 C 206.12 298.58 206.12 335.81 206.08 373.04 C 205.93 381.15 206.67 389.31 205.31 397.35 C 202.04 399.30 197.94 399.28 194.68 397.32 C 194.19 393.90 193.85 390.46 193.87 387.01 C 193.98 345.12 193.76 303.24 193.99 261.35 Z" />
    </g>
    <g id="#685b65ff">
        <path fill="#685b65" opacity="1.00"
            d=" M 309.67 288.68 C 311.63 287.79 313.77 285.67 316.02 286.91 C 316.26 288.24 316.39 289.59 316.42 290.95 C 316.38 305.06 316.35 319.18 316.43 333.29 C 289.40 349.03 262.30 364.66 235.16 380.21 C 235.16 364.19 235.10 348.16 235.18 332.14 C 259.92 317.50 285.03 303.49 309.67 288.68 Z" />
    </g>
</svg>