<svg width="100" height="100" viewBox="0 0 100 100" fill="none" xmlns="http://www.w3.org/2000/svg">
  <path
    d="M3.41173 74.74C4.76401 75.204 6.3155 75.04 7.54357 74.304C8.27948 73.8751 8.83961 73.2236 9.44193 72.6353C17.9611 64.116 26.4802 55.5944 35.0017 47.0751C39.3492 51.4109 43.6802 55.7632 48.0324 60.0966C50.4088 62.445 53.9993 63.4481 57.2499 62.67C59.0944 62.2575 60.7935 61.2825 62.1247 59.9466C71.0399 51.043 79.9434 42.1276 88.854 33.2193C89.25 32.8373 89.6344 32.4435 90 32.031C89.9953 29.692 89.9977 27.3531 90 25.0141C87.6564 24.9906 85.3151 25.0164 82.9738 25C73.6086 34.2669 64.3348 43.6346 54.9977 52.932C50.6947 48.629 46.3965 44.319 42.0865 40.0253C40.3476 38.2746 37.9524 37.1989 35.4845 37.0957C32.6956 36.9434 29.8762 38.0402 27.9169 40.0253C19.1212 48.8095 10.3372 57.6053 1.54385 66.3918C0.439989 67.4488 -0.148266 69.019 0.0321948 70.5401C0.210312 72.4408 1.59775 74.154 3.41173 74.74Z"
    fill="#FF8B8B" />
  <path
    d="M90.0049 45.2134C90.0494 47.55 91.9618 49.6615 94.2796 49.9475C96.3771 50.2873 98.5918 49.1038 99.4894 47.182C99.944 46.2961 100.021 45.2814 99.9956 44.3018C99.9862 36.1765 100.005 28.0513 99.9886 19.9284C100.017 17.2849 97.6356 14.9436 94.9944 15.0069C86.7121 14.9999 78.4299 15.0069 70.15 15.0046C68.615 14.96 67.0822 15.6537 66.119 16.8513C64.9355 18.2715 64.6613 20.3714 65.4347 22.0517C66.1964 23.786 68.015 24.9976 69.9133 25C74.2653 25.0093 78.6197 25.0046 82.9718 25C85.313 25.0164 87.6543 24.9906 89.9979 25.014C89.9955 27.3529 89.9932 29.6918 89.9979 32.0307C89.9979 36.4249 89.9814 40.8192 90.0049 45.2134Z"
    fill="#FF0B0B" />
</svg>