<svg width="100" height="100" viewBox="0 0 100 100" fill="none" xmlns="http://www.w3.org/2000/svg">
  <path
    d="M11.1758 25.2188C12.3027 24.832 13.5957 24.9688 14.6191 25.582C15.2324 25.9395 15.6992 26.4824 16.2011 26.9727C23.3008 34.0723 30.4004 41.1738 37.5019 48.2734C41.125 44.6602 44.7344 41.0332 48.3613 37.4219C50.3418 35.4648 53.334 34.6289 56.0429 35.2773C57.5801 35.6211 58.9961 36.4336 60.1054 37.5469C67.5351 44.9668 74.9551 52.3965 82.3808 59.8203C82.7109 60.1387 83.0312 60.4668 83.3359 60.8106C83.332 62.7598 83.334 64.709 83.3359 66.6582C81.3828 66.6777 79.4316 66.6563 77.4805 66.6699C69.6758 58.9473 61.9472 51.1406 54.166 43.3926C50.5801 46.9785 46.998 50.5703 43.4062 54.1484C41.957 55.6074 39.9609 56.5039 37.9043 56.5898C35.5801 56.7168 33.2304 55.8027 31.5976 54.1484C24.2676 46.8281 16.9472 39.4981 9.61912 32.1758C8.69919 31.2949 8.20896 29.9863 8.35935 28.7188C8.50779 27.1348 9.66404 25.707 11.1758 25.2188Z"
    fill="#8BFF8B" />
  <path
    d="M83.3418 49.8242C83.3789 47.877 84.9726 46.1172 86.9043 45.8789C88.6523 45.5957 90.498 46.582 91.2461 48.1836C91.625 48.9219 91.6894 49.7676 91.6679 50.584C91.6601 57.3555 91.6758 64.127 91.6621 70.8965C91.6855 73.0996 89.7011 75.0508 87.5 74.998C80.5976 75.0039 73.6953 74.998 66.7949 75C65.5156 75.0371 64.2383 74.459 63.4355 73.4609C62.4492 72.2773 62.2207 70.5273 62.8652 69.127C63.5 67.6816 65.0156 66.6719 66.5976 66.6699C70.2246 66.6621 73.8535 66.666 77.4804 66.6699C79.4316 66.6563 81.3828 66.6777 83.3359 66.6582C83.334 64.709 83.332 62.7598 83.3359 60.8105C83.3359 57.1484 83.3222 53.4863 83.3418 49.8242Z"
    fill="#0BFF0B" />
</svg>