<?xml version="1.0" encoding="UTF-8"?>
<!DOCTYPE svg PUBLIC "-//W3C//DTD SVG 1.1//EN" "http://www.w3.org/Graphics/SVG/1.1/DTD/svg11.dtd">
<svg width="400pt" height="400pt" viewBox="0 0 400 400" version="1.1"
    xmlns="http://www.w3.org/2000/svg">
    <g id="#76feccff">
        <path fill="#76fecc" opacity="1.00"
            d=" M 107.80 4.67 C 110.36 3.46 113.24 3.86 115.98 3.81 C 120.68 3.86 125.37 3.74 130.07 3.84 C 131.82 3.74 133.89 5.16 133.68 7.08 C 133.80 26.41 133.70 45.75 133.72 65.09 C 133.54 66.73 134.40 68.44 135.92 69.15 C 140.25 70.52 145.47 68.05 149.45 70.71 C 149.75 71.28 150.35 72.42 150.65 72.99 C 149.55 75.04 148.18 76.91 146.73 78.72 C 146.12 79.46 145.48 80.17 144.80 80.84 C 144.26 81.61 143.73 82.39 143.21 83.18 C 142.54 83.86 141.89 84.55 141.25 85.25 C 135.61 92.56 129.63 99.61 123.95 106.88 C 123.23 107.88 122.19 108.56 121.22 109.29 C 120.87 109.31 120.15 109.35 119.79 109.37 C 118.79 108.67 117.69 108.05 116.91 107.09 C 110.43 98.90 103.80 90.84 97.25 82.70 C 95.00 79.10 90.44 76.36 90.44 71.84 C 90.81 71.32 91.53 70.28 91.89 69.77 C 96.01 69.32 100.16 69.54 104.30 69.54 C 107.47 68.27 106.66 64.73 106.74 62.01 C 106.77 43.64 106.63 25.26 106.81 6.89 C 107.06 6.33 107.55 5.22 107.80 4.67 Z" />
        <path fill="#76fecc" opacity="1.00"
            d=" M 348.45 62.40 C 350.18 61.56 352.06 61.15 353.99 61.26 C 361.31 61.33 368.62 61.19 375.93 61.32 C 378.40 61.15 380.48 63.48 380.30 65.90 C 380.37 89.30 380.24 112.71 380.35 136.11 C 379.93 138.43 381.99 140.15 384.13 140.33 C 388.55 140.57 392.99 140.36 397.42 140.43 C 398.54 141.54 399.67 142.72 400.00 144.33 L 400.00 145.15 C 399.15 147.98 396.84 149.96 395.09 152.24 C 385.90 163.66 376.70 175.08 367.49 186.48 C 365.88 188.90 362.06 188.93 360.46 186.50 C 350.75 174.53 341.10 162.52 331.42 150.53 C 329.92 148.61 327.50 146.85 328.08 144.07 C 328.01 142.37 329.59 141.49 330.62 140.43 C 335.02 140.35 339.42 140.57 343.81 140.33 C 345.34 140.22 346.43 139.00 347.63 138.19 C 347.87 114.44 347.67 90.68 347.73 66.93 C 347.73 65.39 348.14 63.89 348.45 62.40 Z" />
        <path fill="#76fecc" opacity="1.00"
            d=" M 48.78 128.60 C 58.89 127.98 69.11 128.05 79.23 128.55 C 79.98 129.60 80.74 130.64 81.50 131.68 C 81.51 157.13 81.48 182.58 81.51 208.03 C 81.37 209.29 82.01 210.38 82.58 211.45 C 87.76 213.79 93.75 211.97 99.26 212.60 C 100.50 213.43 101.57 214.49 102.43 215.72 C 103.08 219.80 99.32 222.32 97.29 225.33 C 91.87 231.91 86.59 238.60 81.21 245.22 C 79.81 247.13 78.18 248.85 76.75 250.74 C 75.63 252.27 74.36 253.69 73.18 255.17 C 70.89 258.01 68.69 260.94 66.12 263.55 C 61.39 265.00 59.31 260.13 56.74 257.27 C 55.61 255.75 54.36 254.32 53.16 252.86 C 44.35 241.94 35.59 230.96 26.70 220.10 C 24.74 217.56 26.07 213.99 28.78 212.66 C 33.49 212.41 38.21 212.69 42.93 212.50 C 45.13 212.38 46.94 210.28 46.68 208.07 C 46.75 183.37 46.69 158.66 46.70 133.96 C 46.50 131.93 47.89 130.28 48.78 128.60 Z" />
    </g>
    <g id="#57be92ff">
        <path fill="#57be92" opacity="1.00"
            d=" M 218.56 73.10 C 223.00 70.30 228.26 68.58 233.54 69.69 C 239.38 71.36 244.83 74.64 248.72 79.36 C 250.28 81.27 253.20 80.64 255.23 79.92 C 262.29 76.93 269.89 74.35 277.67 75.33 C 283.07 75.83 287.36 81.50 285.37 86.81 C 282.56 93.67 276.49 98.31 271.63 103.65 C 265.98 110.01 259.92 116.39 256.88 124.50 C 250.48 124.37 244.08 124.41 237.68 124.55 C 240.49 117.49 244.27 110.66 245.11 102.98 C 245.77 97.55 244.05 91.81 240.28 87.81 C 234.37 81.23 226.53 76.72 218.56 73.10 Z" />
        <path fill="#57be92" opacity="1.00"
            d=" M 224.46 149.65 C 235.19 149.50 245.91 149.71 256.63 149.86 C 269.12 156.04 281.38 162.95 291.97 172.09 C 305.16 183.04 316.45 196.56 323.40 212.32 C 323.80 212.32 324.62 212.33 325.02 212.33 L 325.16 212.72 C 329.64 228.02 330.06 244.54 326.39 260.04 C 325.55 259.94 323.86 259.74 323.01 259.63 C 313.90 259.29 305.34 263.81 299.51 270.64 C 299.56 269.09 299.62 267.54 299.96 266.02 C 302.59 255.72 304.25 245.02 303.58 234.38 C 301.94 215.80 291.26 199.47 278.69 186.28 C 265.53 173.30 250.18 162.60 233.66 154.34 C 230.53 152.89 227.29 151.65 224.46 149.65 Z" />
    </g>
    <g id="#7acaa6ff">
        <path fill="#7acaa6" opacity="1.00"
            d=" M 211.27 79.37 C 213.46 77.01 215.81 74.79 218.56 73.10 C 226.53 76.72 234.37 81.23 240.28 87.81 C 244.05 91.81 245.77 97.55 245.11 102.98 C 244.27 110.66 240.49 117.49 237.68 124.55 C 226.16 124.67 214.63 124.76 203.11 124.48 C 198.26 112.46 188.17 103.78 179.60 94.46 C 176.66 90.97 173.36 86.76 174.40 81.89 C 175.39 78.52 178.55 75.88 182.05 75.47 C 189.68 74.38 197.21 76.98 204.15 79.90 C 206.36 80.72 209.54 81.46 211.27 79.37 Z" />
        <path fill="#7acaa6" opacity="1.00"
            d=" M 198.14 149.08 C 206.89 149.97 215.69 149.31 224.46 149.65 C 227.29 151.65 230.53 152.89 233.66 154.34 C 250.18 162.60 265.53 173.30 278.69 186.28 C 291.26 199.47 301.94 215.80 303.58 234.38 C 304.25 245.02 302.59 255.72 299.96 266.02 C 299.62 267.54 299.56 269.09 299.51 270.64 C 286.84 283.25 274.21 295.91 261.59 308.57 C 259.12 311.31 255.88 313.83 251.96 313.46 C 228.30 313.41 204.63 313.53 180.97 313.40 C 178.32 313.56 177.08 311.07 176.33 308.97 C 182.47 300.98 189.32 293.56 195.77 285.81 C 200.62 280.18 201.95 272.12 200.01 265.05 C 197.05 254.34 184.76 247.47 174.12 250.63 C 169.63 251.61 165.73 254.28 162.80 257.76 C 155.87 265.72 149.13 273.84 142.19 281.79 L 141.73 281.62 C 138.60 275.42 135.90 268.96 134.13 262.22 C 130.88 251.16 130.84 239.48 131.62 228.07 C 134.10 204.59 146.47 182.60 164.47 167.46 C 174.35 159.30 185.68 152.36 198.14 149.08 M 224.61 180.74 C 223.23 183.88 224.06 187.39 223.60 190.68 C 218.18 192.63 212.99 196.24 210.88 201.83 C 208.06 208.17 209.85 216.38 215.56 220.51 C 222.36 225.46 231.22 226.29 238.17 230.90 C 241.69 232.70 241.62 238.40 238.27 240.32 C 231.80 245.12 222.38 242.19 217.13 236.85 C 213.31 232.70 205.44 236.36 206.74 242.11 C 209.76 248.62 216.98 251.95 223.55 253.80 C 223.86 256.53 223.60 259.29 223.97 262.02 C 224.59 266.20 230.36 268.37 233.58 265.60 C 237.30 263.00 235.28 257.97 236.20 254.21 C 242.94 252.73 249.39 248.42 251.88 241.77 C 253.59 235.97 253.24 228.89 248.80 224.34 C 242.22 216.60 231.31 215.89 222.94 211.02 C 219.69 208.25 223.01 203.39 226.36 202.54 C 230.52 201.77 235.03 202.05 238.69 204.36 C 241.08 205.46 243.11 207.87 245.96 207.47 C 249.82 207.02 253.31 201.84 250.50 198.41 C 246.93 193.79 241.00 192.28 235.84 190.19 C 235.64 186.39 237.18 181.18 233.17 178.86 C 230.41 176.44 226.52 178.15 224.61 180.74 Z" />
        <path fill="#7acaa6" opacity="1.00"
            d=" M 256.63 149.86 C 258.19 149.63 259.75 149.34 261.31 149.05 C 267.92 150.27 273.96 153.54 279.85 156.65 C 301.20 168.61 318.08 188.76 325.02 212.33 C 324.62 212.33 323.80 212.32 323.40 212.32 C 316.45 196.56 305.16 183.04 291.97 172.09 C 281.38 162.95 269.12 156.04 256.63 149.86 Z" />
    </g>
    <g id="#8b7d8bff">
        <path fill="#8b7d8b" opacity="1.00"
            d=" M 203.11 124.48 C 214.63 124.76 226.16 124.67 237.68 124.55 C 244.08 124.41 250.48 124.37 256.88 124.50 C 260.05 125.31 263.49 126.53 265.24 129.50 C 269.28 135.79 267.39 144.75 261.31 149.05 C 259.75 149.34 258.19 149.63 256.63 149.86 C 245.91 149.71 235.19 149.50 224.46 149.65 C 215.69 149.31 206.89 149.97 198.14 149.08 C 196.65 147.08 194.85 145.30 193.65 143.10 C 191.88 138.60 192.05 133.09 194.93 129.07 C 196.86 126.45 200.05 125.21 203.11 124.48 Z" />
    </g>
    <g id="#f3f0f3ff">
        <path fill="#f3f0f3" opacity="1.00"
            d=" M 224.61 180.74 C 226.52 178.15 230.41 176.44 233.17 178.86 C 237.18 181.18 235.64 186.39 235.84 190.19 C 241.00 192.28 246.93 193.79 250.50 198.41 C 253.31 201.84 249.82 207.02 245.96 207.47 C 243.11 207.87 241.08 205.46 238.69 204.36 C 235.03 202.05 230.52 201.77 226.36 202.54 C 223.01 203.39 219.69 208.25 222.94 211.02 C 231.31 215.89 242.22 216.60 248.80 224.34 C 253.24 228.89 253.59 235.97 251.88 241.77 C 249.39 248.42 242.94 252.73 236.20 254.21 C 235.28 257.97 237.30 263.00 233.58 265.60 C 230.36 268.37 224.59 266.20 223.97 262.02 C 223.60 259.29 223.86 256.53 223.55 253.80 C 216.98 251.95 209.76 248.62 206.74 242.11 C 205.44 236.36 213.31 232.70 217.13 236.85 C 222.38 242.19 231.80 245.12 238.27 240.32 C 241.62 238.40 241.69 232.70 238.17 230.90 C 231.22 226.29 222.36 225.46 215.56 220.51 C 209.85 216.38 208.06 208.17 210.88 201.83 C 212.99 196.24 218.18 192.63 223.60 190.68 C 224.06 187.39 223.23 183.88 224.61 180.74 Z" />
    </g>
    <g id="#fed2a4ff">
        <path fill="#fed2a4" opacity="1.00"
            d=" M 162.80 257.76 C 165.73 254.28 169.63 251.61 174.12 250.63 C 184.76 247.47 197.05 254.34 200.01 265.05 C 201.95 272.12 200.62 280.18 195.77 285.81 C 189.32 293.56 182.47 300.98 176.33 308.97 C 177.08 311.07 178.32 313.56 180.97 313.40 C 204.63 313.53 228.30 313.41 251.96 313.46 C 255.88 313.83 259.12 311.31 261.59 308.57 C 274.21 295.91 286.84 283.25 299.51 270.64 C 305.34 263.81 313.90 259.29 323.01 259.63 C 323.95 261.83 325.11 263.99 325.53 266.36 C 325.86 269.84 323.62 272.89 321.28 275.22 C 303.50 292.82 285.82 310.53 268.12 328.21 C 262.09 334.39 255.69 341.05 246.86 342.85 C 202.71 351.47 158.50 359.88 114.33 368.45 C 106.62 369.39 98.83 368.21 91.11 369.07 C 90.28 374.27 90.80 379.51 91.10 384.72 C 90.96 384.93 90.67 385.34 90.52 385.55 C 90.29 360.90 90.46 336.25 90.46 311.60 C 96.97 311.59 103.47 311.66 109.97 311.59 C 114.76 311.62 119.21 308.93 122.17 305.29 C 128.82 297.44 135.57 289.66 142.19 281.79 C 149.13 273.84 155.87 265.72 162.80 257.76 Z" />
    </g>
    <g id="#ffbd86ff">
        <path fill="#ffbd86" opacity="1.00"
            d=" M 323.01 259.63 C 323.86 259.74 325.55 259.94 326.39 260.04 C 330.61 260.71 334.58 262.54 337.99 265.07 C 340.95 267.37 344.22 270.10 344.29 274.18 C 344.49 278.75 340.77 281.83 337.83 284.75 C 315.65 306.89 293.54 329.09 271.33 351.19 C 266.01 356.74 258.45 359.22 251.00 360.21 C 215.06 367.27 179.01 373.91 143.11 381.16 C 139.69 381.62 136.30 382.20 132.93 382.95 C 128.05 384.14 123.04 384.81 118.01 384.78 C 109.04 384.75 100.07 384.82 91.10 384.72 C 90.80 379.51 90.28 374.27 91.11 369.07 C 98.83 368.21 106.62 369.39 114.33 368.45 C 158.50 359.88 202.71 351.47 246.86 342.85 C 255.69 341.05 262.09 334.39 268.12 328.21 C 285.82 310.53 303.50 292.82 321.28 275.22 C 323.62 272.89 325.86 269.84 325.53 266.36 C 325.11 263.99 323.95 261.83 323.01 259.63 Z" />
    </g>
    <g id="#62dbfbff">
        <path fill="#62dbfb" opacity="1.00"
            d=" M 0.00 304.83 C 0.49 302.07 3.09 299.95 5.91 300.18 C 30.96 300.11 56.00 300.18 81.05 300.14 C 83.90 299.98 86.98 300.80 88.71 303.23 C 90.68 305.56 90.46 308.74 90.46 311.60 C 90.46 336.25 90.29 360.90 90.52 385.55 C 90.41 388.22 90.56 391.22 88.58 393.32 C 86.63 396.04 83.05 396.22 80.01 396.20 C 55.32 396.13 30.63 396.24 5.95 396.15 C 3.03 396.40 0.52 394.28 0.00 391.46 L 0.00 304.83 Z" />
    </g>
</svg>