<svg width="100" height="100" viewBox="0 0 100 100" fill="none" xmlns="http://www.w3.org/2000/svg">
  <g clip-path="url(#clip0_380_7)">
    <path
      d="M3.44964 20.26C4.81695 19.796 6.38568 19.96 7.62739 20.696C8.37147 21.1249 8.93783 21.7764 9.54684 22.3647C18.1606 30.884 26.7744 39.4056 35.3906 47.9249C39.7864 43.5891 44.1656 39.2368 48.5661 34.9034C50.9689 32.555 54.5993 31.5519 57.886 32.33C59.751 32.7425 61.469 33.7175 62.815 35.0534C71.8293 43.957 80.8317 52.8724 89.8412 61.7807C90.2417 62.1627 90.6303 62.5565 91 62.969C90.9953 65.308 90.9976 67.6469 91 69.9859C88.6303 70.0094 86.263 69.9836 83.8957 70C74.4264 60.7331 65.0496 51.3654 55.6088 42.068C51.258 46.371 46.912 50.681 42.5542 54.9747C40.7959 56.7254 38.3741 57.8011 35.8788 57.9043C33.0588 58.0566 30.2081 56.9598 28.2271 54.9747C19.3336 46.1905 10.4521 37.3947 1.561 28.6082C0.444878 27.5512 -0.149913 25.981 0.0325526 24.4599C0.212649 22.5592 1.6155 20.846 3.44964 20.26Z"
      fill="#8BFF8B" />
    <path
      d="M90.0065 49.7868C90.0511 47.4501 91.9636 45.3384 94.2816 45.0524C96.3793 44.7126 98.5941 45.8962 99.4918 47.8181C99.9465 48.704 100.024 49.7189 99.998 50.6985C99.9886 58.8244 100.007 66.9502 99.991 75.0737C100.019 77.7175 97.6379 80.0589 94.9964 79.9956C86.7136 80.0027 78.4307 79.9956 70.1502 79.998C68.615 80.0425 67.0822 79.3488 66.1189 78.1511C64.9353 76.7308 64.6611 74.6308 65.4345 72.9503C66.1962 71.2159 68.015 70.0042 69.9134 70.0018C74.2658 69.9924 78.6205 69.9971 82.9729 70.0018C85.3143 69.9854 87.6557 70.0112 89.9995 69.9878C89.9972 67.6487 89.9948 65.3096 89.9995 62.9705C89.9995 58.576 89.9831 54.1814 90.0065 49.7868Z"
      fill="#0BFF0B" />
  </g>
  <defs>
    <clipPath id="clip0_380_7">
      <rect width="100" height="100" fill="white" />
    </clipPath>
  </defs>
</svg>