<svg width="100" height="100" viewBox="0 0 100 100" fill="none" xmlns="http://www.w3.org/2000/svg">
  <path
    d="M11.1758 74.7812C12.3027 75.168 13.5957 75.0312 14.6191 74.418C15.2324 74.0605 15.6992 73.5176 16.2011 73.0273C23.3008 65.9277 30.4004 58.8262 37.5019 51.7266C41.125 55.3398 44.7344 58.9668 48.3613 62.5781C50.3418 64.5352 53.334 65.3711 56.0429 64.7227C57.5801 64.3789 58.9961 63.5664 60.1054 62.4531C67.5351 55.0332 74.9551 47.6035 82.3808 40.1797C82.7109 39.8613 83.0312 39.5332 83.3359 39.1894C83.332 37.2402 83.334 35.291 83.3359 33.3418C81.3828 33.3223 79.4316 33.3437 77.4805 33.3301C69.6758 41.0527 61.9472 48.8594 54.166 56.6074C50.5801 53.0215 46.998 49.4297 43.4062 45.8516C41.957 44.3926 39.9609 43.4961 37.9043 43.4102C35.5801 43.2832 33.2304 44.1973 31.5976 45.8516C24.2676 53.1719 16.9472 60.5019 9.61912 67.8242C8.69919 68.7051 8.20896 70.0137 8.35935 71.2812C8.50779 72.8652 9.66404 74.293 11.1758 74.7812Z"
    fill="#FF8B8B" />
  <path
    d="M83.3418 50.1758C83.3789 52.123 84.9726 53.8828 86.9043 54.1211C88.6523 54.4043 90.498 53.418 91.2461 51.8164C91.625 51.0781 91.6894 50.2324 91.6679 49.416C91.6601 42.6445 91.6758 35.873 91.6621 29.1035C91.6855 26.9004 89.7011 24.9492 87.5 25.002C80.5976 24.9961 73.6953 25.002 66.7949 25C65.5156 24.9629 64.2383 25.541 63.4355 26.5391C62.4492 27.7227 62.2207 29.4727 62.8652 30.873C63.5 32.3184 65.0156 33.3281 66.5976 33.3301C70.2246 33.3379 73.8535 33.334 77.4804 33.3301C79.4316 33.3437 81.3828 33.3223 83.3359 33.3418C83.334 35.291 83.332 37.2402 83.3359 39.1895C83.3359 42.8516 83.3222 46.5137 83.3418 50.1758Z"
    fill="#FF0B0B" />
</svg>