<svg width="70" height="44" viewBox="0 0 70 44" fill="none" xmlns="http://www.w3.org/2000/svg">
  <path
    d="M2.19964 19.8315C3.30235 17.9039 5.75955 17.2363 7.6861 18.3408L34.9999 34.0002L35 43L3.71118 25.3255C1.7715 24.2298 1.09343 21.7652 2.19964 19.8315V19.8315Z"
    fill="#B78BFF" />
  <path
    d="M67.9436 19.796C66.8418 17.87 64.3876 17.2015 62.4612 18.3026L35 34L35.0001 43.0001L66.4281 25.2926C68.3707 24.1981 69.0508 21.7313 67.9436 19.796V19.796Z"
    fill="#B78BFF" />
  <path
    d="M2.19964 3.65546C3.30235 1.72788 5.75955 1.06024 7.6861 2.16476L34.9999 17.8241L35 26.824L3.71118 9.14944C1.7715 8.05374 1.09343 5.58916 2.19964 3.65546V3.65546Z"
    fill="#FFFAEE" />
  <path
    d="M67.9436 3.61994C66.8418 1.69394 64.3876 1.02543 62.4612 2.12658L35 17.824L35.0001 26.8241L66.4281 9.11656C68.3707 8.02206 69.0508 5.55531 67.9436 3.61994V3.61994Z"
    fill="#FFFAEE" />
</svg>