<svg width="70" height="44" viewBox="0 0 70 44" fill="none" xmlns="http://www.w3.org/2000/svg">
  <path
    d="M2.19964 19.831C3.30235 17.9034 5.75955 17.2358 7.6861 18.3403L34.9999 33.9997L35 42.9995L3.71118 25.325C1.7715 24.2293 1.09343 21.7647 2.19964 19.831V19.831Z"
    fill="#FFA217" />
  <path
    d="M67.9436 19.7957C66.8418 17.8697 64.3876 17.2012 62.4612 18.3024L35 33.9998L35.0001 42.9999L66.4281 25.2923C68.3707 24.1978 69.0508 21.7311 67.9436 19.7957V19.7957Z"
    fill="#FFA217" />
  <path
    d="M2.19964 3.65521C3.30235 1.72763 5.75955 1.06 7.6861 2.16451L34.9999 17.8239L35 26.8237L3.71118 9.14919C1.7715 8.0535 1.09343 5.58892 2.19964 3.65521V3.65521Z"
    fill="#FFFAEE" />
  <path
    d="M67.9436 3.61994C66.8418 1.69394 64.3876 1.02543 62.4612 2.12658L35 17.824L35.0001 26.8241L66.4281 9.11656C68.3707 8.02206 69.0508 5.55531 67.9436 3.61994V3.61994Z"
    fill="#FFFAEE" />
</svg>