<svg width="100" height="100" viewBox="0 0 100 100" fill="none" xmlns="http://www.w3.org/2000/svg">
  <circle cx="50" cy="50" r="50" fill="#1E1E25" />
  <path
    d="M31.4702 70.54C28.9862 70.54 26.7362 70.252 24.7202 69.676C22.7402 69.064 20.9762 68.2 19.4282 67.084C17.8802 65.932 16.4942 64.582 15.2702 63.034L20.8322 56.716C22.6322 59.128 24.4322 60.748 26.2322 61.576C28.0682 62.404 29.9582 62.818 31.9022 62.818C32.8742 62.818 33.7562 62.692 34.5482 62.44C35.3402 62.188 35.9522 61.828 36.3842 61.36C36.8162 60.856 37.0322 60.244 37.0322 59.524C37.0322 58.984 36.8882 58.498 36.6002 58.066C36.3482 57.634 35.9882 57.256 35.5202 56.932C35.0522 56.608 34.4942 56.32 33.8462 56.068C33.1982 55.78 32.5142 55.546 31.7942 55.366C31.0742 55.15 30.3362 54.97 29.5802 54.826C27.4922 54.358 25.6742 53.782 24.1262 53.098C22.5782 52.414 21.2822 51.586 20.2382 50.614C19.2302 49.606 18.4742 48.472 17.9702 47.212C17.4662 45.916 17.2142 44.476 17.2142 42.892C17.2142 41.2 17.5922 39.652 18.3482 38.248C19.1402 36.808 20.1842 35.584 21.4802 34.576C22.8122 33.532 24.3422 32.74 26.0702 32.2C27.7982 31.624 29.5982 31.336 31.4702 31.336C33.9542 31.336 36.0782 31.606 37.8422 32.146C39.6422 32.65 41.1722 33.388 42.4322 34.36C43.7282 35.332 44.8262 36.502 45.7262 37.87L40.0562 43.324C39.3002 42.388 38.4722 41.614 37.5722 41.002C36.7082 40.39 35.7722 39.922 34.7642 39.598C33.7922 39.274 32.7842 39.112 31.7402 39.112C30.6602 39.112 29.7242 39.256 28.9322 39.544C28.1762 39.796 27.5822 40.174 27.1502 40.678C26.7182 41.146 26.5022 41.722 26.5022 42.406C26.5022 43.018 26.6822 43.54 27.0422 43.972C27.4022 44.404 27.8882 44.8 28.5002 45.16C29.1122 45.484 29.8142 45.772 30.6062 46.024C31.3982 46.24 32.2262 46.42 33.0902 46.564C35.0702 46.96 36.8522 47.482 38.4362 48.13C40.0562 48.778 41.4422 49.57 42.5942 50.506C43.7822 51.442 44.6822 52.558 45.2942 53.854C45.9422 55.114 46.2662 56.59 46.2662 58.282C46.2662 60.91 45.6182 63.142 44.3222 64.978C43.0622 66.778 41.3162 68.164 39.0842 69.136C36.8882 70.072 34.3502 70.54 31.4702 70.54ZM78.8527 70.594C77.3767 70.594 76.2247 70.18 75.3967 69.352C74.6047 68.524 74.2087 67.336 74.2087 65.788C74.2087 64.348 74.6407 63.178 75.5047 62.278C76.3687 61.378 77.4847 60.928 78.8527 60.928C80.3287 60.928 81.4807 61.36 82.3087 62.224C83.1367 63.052 83.5507 64.24 83.5507 65.788C83.5507 67.192 83.1187 68.344 82.2547 69.244C81.3907 70.144 80.2567 70.594 78.8527 70.594Z"
    fill="#FFF0CE" />
  <path d="M58.1348 70V40.3H46.9028V32.2H78.8168V40.3H67.3148V70H58.1348Z" fill="#FFA217" />
</svg>