<svg width="447" height="320" viewBox="0 0 447 320" fill="none" xmlns="http://www.w3.org/2000/svg">
<g clip-path="url(#clip0_201_1217)">
<path d="M433.619 93.7729H189.108C185.666 93.7761 182.366 95.1451 179.933 97.5795C177.499 100.014 176.13 103.315 176.127 106.757V146.394C176.13 149.837 177.499 153.138 179.933 155.572C182.366 158.006 185.666 159.375 189.108 159.378H433.619C437.06 159.375 440.36 158.006 442.794 155.572C445.228 153.138 446.596 149.837 446.599 146.394V106.757C446.596 103.315 445.228 100.014 442.794 97.5795C440.36 95.1451 437.06 93.7761 433.619 93.7729Z" fill="#F2F2F2"/>
<path d="M98.0553 320H0.778217C0.571821 320 0.373866 319.918 0.227922 319.772C0.081978 319.626 0 319.428 0 319.222C0 319.015 0.081978 318.817 0.227922 318.671C0.373866 318.525 0.571821 318.443 0.778217 318.443H98.0553C98.2617 318.443 98.4596 318.525 98.6056 318.671C98.7515 318.817 98.8335 319.015 98.8335 319.222C98.8335 319.428 98.7515 319.626 98.6056 319.772C98.4596 319.918 98.2617 320 98.0553 320Z" fill="#3F3D56"/>
<path d="M83.7723 76.2693C82.8702 76.8389 82.1038 77.5994 81.5273 78.4973C80.9508 79.3951 80.5781 80.4085 80.4355 81.4661C80.2929 82.5236 80.3839 83.5995 80.7019 84.6181C81.02 85.6367 81.5575 86.5731 82.2765 87.3615L75.2045 102.467L83.3336 109.005L93.0211 87.5324C94.265 86.2363 94.9905 84.5289 95.06 82.7336C95.1295 80.9384 94.5382 79.1799 93.3981 77.7916C92.2581 76.4033 90.6485 75.4815 88.8744 75.2009C87.1003 74.9203 85.2849 75.3005 83.7723 76.2693Z" fill="#FFB8B8"/>
<path d="M43.1325 82.3992C45.3706 81.0544 48.0403 80.6229 50.588 81.1942C53.1357 81.7655 55.3657 83.2957 56.8158 85.4675L71.2865 107.141L76.3103 96.0625C76.624 95.3708 77.1797 94.8176 77.8727 94.5071C78.5658 94.1966 79.3484 94.1502 80.0733 94.3767L87.6557 96.7459C88.0518 96.8697 88.4192 97.0714 88.7363 97.3393C89.0533 97.6072 89.3136 97.9358 89.5018 98.3057C89.6901 98.6757 89.8024 99.0796 89.8323 99.4937C89.8622 99.9077 89.8091 100.324 89.6759 100.717L84.4855 116.047C83.829 117.987 82.732 119.747 81.2807 121.191C79.8294 122.635 78.0633 123.723 76.121 124.369C74.1787 125.015 72.1131 125.202 70.0864 124.916C68.0596 124.629 66.1269 123.876 64.4399 122.717C63.6516 122.175 62.9243 121.549 62.2707 120.851L40.9456 98.0586C39.91 96.9519 39.1351 95.6274 38.6774 94.1823C38.2198 92.7371 38.0911 91.2079 38.3008 89.7066C38.5104 88.2053 39.0531 86.7699 39.8892 85.5055C40.7252 84.2411 41.8333 83.1798 43.1325 82.3992Z" fill="#CCCCCC"/>
<path d="M89.9446 60.0053C90.3331 60.015 90.7017 60.1786 90.9695 60.4601C91.2374 60.7417 91.3824 61.1181 91.3728 61.5066L91.2479 66.5373L91.5001 66.5603L91.4095 69.9771L91.1632 69.9464L90.7157 87.9689C90.7003 88.5858 90.4612 89.1759 90.0428 89.6294C89.6244 90.0828 89.0554 90.3684 88.4419 90.433L76.9852 91.6395C76.7062 91.6689 76.4242 91.6369 76.159 91.5457C75.8937 91.4546 75.6516 91.3065 75.4496 91.1118C75.2476 90.9172 75.0906 90.6807 74.9897 90.4189C74.8887 90.1572 74.8462 89.8765 74.8652 89.5966L76.6028 63.9338C76.6393 63.3948 76.858 62.8842 77.2231 62.486C77.5881 62.0879 78.0777 61.8258 78.6114 61.7428L89.6714 60.0242C89.7617 60.0093 89.8532 60.0031 89.9446 60.0053Z" fill="#3F3D56"/>
<path d="M81.078 62.6763L86.8923 61.7728C86.997 61.7565 87.0933 61.7062 87.1665 61.6296C87.2397 61.5531 87.2856 61.4545 87.2971 61.3492C87.3101 61.2299 87.3621 61.1182 87.445 61.0315C87.5279 60.9447 87.637 60.8877 87.7556 60.8693L88.9803 60.679C89.1474 60.653 89.3182 60.6641 89.4806 60.7113C89.643 60.7586 89.793 60.8409 89.9202 60.9525C90.0473 61.0641 90.1483 61.2022 90.2163 61.3572C90.2842 61.5121 90.3172 61.68 90.3132 61.8492L89.6837 87.9788C89.6759 88.303 89.549 88.613 89.3272 88.8497C89.1054 89.0863 88.8043 89.233 88.4813 89.2617L77.033 90.2798C76.887 90.2928 76.7398 90.2741 76.6017 90.225C76.4635 90.1759 76.3376 90.0976 76.2325 89.9953C76.1273 89.8931 76.0455 89.7694 75.9926 89.6326C75.9397 89.4958 75.9169 89.3492 75.9258 89.2029L77.4705 63.7772C77.4932 63.4026 77.6434 63.047 77.896 62.7695C78.1487 62.492 78.4886 62.3093 78.8593 62.2517L80.1504 62.0511C80.1979 62.253 80.3197 62.4296 80.4917 62.5455C80.6637 62.6614 80.8731 62.7081 81.078 62.6763Z" fill="white"/>
<path d="M54.1032 310.551L62.9997 310.55L67.2309 276.225L54.1 276.226L54.1032 310.551Z" fill="#FFB8B8"/>
<path d="M80.1584 318.812L52.1973 318.815L52.1963 308.009L69.3543 308.007C70.773 308.007 72.1778 308.287 73.4885 308.83C74.7993 309.372 75.9903 310.168 76.9935 311.172C77.9968 312.175 78.7926 313.366 79.3357 314.677C79.8787 315.988 80.1583 317.393 80.1584 318.812Z" fill="#2F2E41"/>
<path d="M26.7598 310.551L35.6563 310.55L39.8875 276.225L26.7567 276.226L26.7598 310.551Z" fill="#FFB8B8"/>
<path d="M52.8152 318.812L24.8541 318.815L24.8531 308.009L42.0111 308.007C44.8762 308.007 47.6242 309.145 49.6503 311.172C51.6765 313.198 52.8149 315.947 52.8152 318.812Z" fill="#2F2E41"/>
<path d="M52.8152 70.7334C63.3715 70.7334 71.929 62.1735 71.929 51.6144C71.929 41.0552 63.3715 32.4954 52.8152 32.4954C42.259 32.4954 33.7014 41.0552 33.7014 51.6144C33.7014 62.1735 42.259 70.7334 52.8152 70.7334Z" fill="#FFB8B8"/>
<path d="M62.6523 102.767C62.4961 97.8514 61.1127 93.0531 58.628 88.8094C56.1433 84.5656 52.6364 81.0113 48.4268 78.4704C43.4887 75.5598 38.0837 74.4247 33.7835 78.726C31.2014 81.3736 29.1336 84.478 27.6854 87.8812C23.7076 97.1553 23.4474 107.604 26.9585 117.065L37.1933 145.348L60.8816 147.915C61.3265 147.963 61.7766 147.915 62.2012 147.773C62.6258 147.632 63.0149 147.4 63.3419 147.095C63.6689 146.789 63.9262 146.417 64.0963 146.003C64.2663 145.588 64.3451 145.143 64.3272 144.695L62.6523 102.767Z" fill="#2F2E41"/>
<path d="M38.6952 141.865C38.6952 141.865 20.9975 148.474 25.6246 176.457C29.7766 201.568 26.477 284.916 25.7558 301.764C25.7215 302.567 25.9992 303.352 26.5308 303.955C27.0624 304.557 27.8066 304.931 28.6075 304.997L38.9383 305.858C39.7474 305.925 40.5509 305.674 41.1773 305.157C41.8037 304.641 42.2035 303.9 42.2914 303.092L47.6268 254.072C47.6477 253.879 47.7395 253.702 47.8843 253.573C48.0291 253.445 48.2165 253.375 48.4099 253.377C48.6033 253.38 48.789 253.454 48.9306 253.586C49.0722 253.718 49.1597 253.898 49.1759 254.09L53.1516 301.26C53.2186 302.054 53.5878 302.793 54.1833 303.323C54.7788 303.854 55.555 304.135 56.3519 304.11L65.0291 303.836C65.4381 303.823 65.8404 303.729 66.2132 303.561C66.5859 303.392 66.9219 303.151 67.2017 302.853C67.4815 302.554 67.6997 302.204 67.8439 301.821C67.988 301.438 68.0553 301.03 68.0419 300.621L62.9304 145.134L38.6952 141.865Z" fill="#2F2E41"/>
<path d="M56.6512 50.3546C63.0438 52.9771 71.2073 49.9137 74.298 43.7326C77.3887 37.5514 74.9427 29.1801 69.0106 25.6367C63.0786 22.0933 54.5506 23.9096 50.5762 29.5628C47.3431 23.7366 38.8734 22.2512 33.0583 25.5022C27.2431 28.7531 24.0756 35.5625 23.6999 42.2155C23.3242 48.8685 25.3463 55.4226 27.8131 61.6125C31.8031 71.6251 44.6482 77.0162 54.5862 72.8494C50.0366 66.0714 50.9347 56.1525 56.6512 50.3546Z" fill="#2F2E41"/>
<path d="M82.4112 78.5872C82.2411 78.5875 82.0755 78.5325 81.9394 78.4304L81.9309 78.424L80.1538 77.0642C80.0715 77.0011 80.0024 76.9224 79.9505 76.8326C79.8986 76.7428 79.8649 76.6436 79.8513 76.5408C79.8378 76.4379 79.8446 76.3334 79.8714 76.2332C79.8982 76.1329 79.9444 76.039 80.0075 75.9567C80.0706 75.8743 80.1493 75.8053 80.2391 75.7533C80.3289 75.7014 80.4281 75.6677 80.5309 75.6541C80.6337 75.6406 80.7382 75.6474 80.8384 75.6742C80.9386 75.701 81.0325 75.7473 81.1148 75.8104L82.2659 76.6933L84.9859 73.1437C85.049 73.0614 85.1277 72.9923 85.2174 72.9404C85.3072 72.8885 85.4063 72.8548 85.5091 72.8413C85.6118 72.8277 85.7163 72.8345 85.8164 72.8613C85.9166 72.8881 86.0105 72.9344 86.0927 72.9975C86.2587 73.1251 86.368 73.3135 86.3954 73.5211C86.4227 73.7287 86.3667 73.9386 86.2394 74.1049L83.04 78.2782C82.966 78.3743 82.8709 78.4521 82.7619 78.5056C82.653 78.559 82.5332 78.5866 82.4119 78.5862L82.4112 78.5872Z" fill="#B78BFF"/>
<path d="M433.848 0H189.338C185.896 0.00311851 182.596 1.37213 180.162 3.8065C177.729 6.24088 176.36 9.5417 176.357 12.9844V52.6211C176.36 56.0638 177.729 59.3646 180.162 61.799C182.596 64.2334 185.896 65.6024 189.338 65.6055H433.848C437.29 65.6024 440.59 64.2334 443.024 61.799C445.458 59.3646 446.826 56.0638 446.829 52.6211V12.9844C446.826 9.5417 445.458 6.24087 443.024 3.80649C440.59 1.37212 437.29 0.00311851 433.848 0ZM445.463 52.6211C445.459 55.7009 444.233 58.6534 442.056 60.8312C439.879 63.009 436.927 64.2343 433.848 64.2387H189.338C186.259 64.2344 183.307 63.009 181.13 60.8312C178.953 58.6534 177.728 55.7009 177.723 52.6211V12.9844C177.728 9.90457 178.953 6.95211 181.13 4.77433C183.307 2.59654 186.259 1.37114 189.338 1.36678H433.848C436.927 1.37114 439.879 2.59654 442.056 4.77433C444.233 6.95211 445.459 9.90457 445.463 12.9844V52.6211Z" fill="#3F3D56"/>
<path d="M239.096 55.4022C234.627 55.4022 230.259 54.0768 226.544 51.5936C222.828 49.1103 219.932 45.5808 218.222 41.4512C216.512 37.3217 216.065 32.7777 216.937 28.3938C217.808 24.0099 219.96 19.9831 223.12 16.8224C226.28 13.6618 230.305 11.5094 234.688 10.6374C239.071 9.76537 243.613 10.2129 247.742 11.9234C251.87 13.6339 255.399 16.5305 257.881 20.247C260.364 23.9635 261.689 28.3329 261.689 32.8027C261.682 38.7943 259.3 44.5386 255.064 48.7754C250.829 53.0121 245.086 55.3953 239.096 55.4022Z" fill="#B78BFF"/>
<path d="M400.487 51.2543H283.052C281.603 51.2543 280.213 50.6783 279.188 49.653C278.163 48.6278 277.587 47.2372 277.587 45.7872C277.587 44.3372 278.163 42.9467 279.188 41.9214C280.213 40.8961 281.603 40.3201 283.052 40.3201H400.487C401.937 40.3201 403.327 40.8961 404.352 41.9214C405.377 42.9467 405.953 44.3372 405.953 45.7872C405.953 47.2372 405.377 48.6278 404.352 49.653C403.327 50.6783 401.937 51.2543 400.487 51.2543Z" fill="#CCCCCC"/>
<path d="M321.919 28.019H283.052C281.603 28.019 280.213 27.443 279.188 26.4177C278.163 25.3924 277.587 24.0018 277.587 22.5518C277.587 21.1019 278.163 19.7113 279.188 18.686C280.213 17.6607 281.603 17.0847 283.052 17.0847H321.919C323.368 17.0847 324.758 17.6607 325.783 18.686C326.808 19.7113 327.384 21.1019 327.384 22.5518C327.384 24.0018 326.808 25.3924 325.783 26.4177C324.758 27.443 323.368 28.019 321.919 28.019Z" fill="#CCCCCC"/>
<path d="M237.942 40.7521C237.381 40.753 236.836 40.5717 236.387 40.2353L236.36 40.2144L230.504 35.7336C230.232 35.5258 230.004 35.2665 229.832 34.9705C229.661 34.6744 229.549 34.3474 229.504 34.0082C229.459 33.669 229.481 33.3243 229.569 32.9937C229.658 32.6631 229.81 32.3531 230.018 32.0815C230.226 31.81 230.486 31.5821 230.782 31.411C231.079 31.2399 231.406 31.1289 231.745 31.0844C232.084 31.0398 232.429 31.0627 232.759 31.1515C233.089 31.2403 233.399 31.3934 233.67 31.602L237.463 34.5114L246.426 22.815C246.634 22.5439 246.893 22.3163 247.189 22.1453C247.485 21.9743 247.811 21.8633 248.15 21.8185C248.489 21.7738 248.833 21.7962 249.163 21.8845C249.493 21.9728 249.802 22.1253 250.073 22.3332L250.074 22.3337L250.018 22.411L250.075 22.3337C250.622 22.7542 250.98 23.3745 251.07 24.0586C251.161 24.7426 250.976 25.4345 250.557 25.9825L240.014 39.7339C239.77 40.0508 239.457 40.3071 239.098 40.4832C238.739 40.6592 238.344 40.7502 237.944 40.749L237.942 40.7521Z" fill="white"/>
<path d="M328.789 106.645H84.2785C80.8367 106.648 77.5368 108.017 75.1031 110.451C72.6693 112.886 71.3007 116.186 71.2976 119.629V159.266C71.3007 162.709 72.6693 166.009 75.1031 168.444C77.5368 170.878 80.8367 172.247 84.2785 172.25H328.789C332.231 172.247 335.531 170.878 337.965 168.444C340.398 166.009 341.767 162.709 341.77 159.266V119.629C341.767 116.186 340.398 112.886 337.965 110.451C335.531 108.017 332.231 106.648 328.789 106.645Z" fill="white"/>
<path d="M328.789 106.645H84.2785C80.8367 106.648 77.5368 108.017 75.1031 110.451C72.6693 112.886 71.3007 116.186 71.2976 119.629V159.266C71.3007 162.709 72.6693 166.009 75.1031 168.444C77.5368 170.878 80.8367 172.247 84.2785 172.25H328.789C332.231 172.247 335.531 170.878 337.965 168.444C340.398 166.009 341.767 162.709 341.77 159.266V119.629C341.767 116.186 340.398 112.886 337.965 110.451C335.531 108.017 332.231 106.648 328.789 106.645ZM340.404 159.266C340.399 162.346 339.174 165.298 336.997 167.476C334.82 169.654 331.868 170.879 328.789 170.883H84.2785C81.1995 170.879 78.2478 169.654 76.0706 167.476C73.8934 165.298 72.6683 162.346 72.664 159.266V119.629C72.6683 116.549 73.8934 113.597 76.0706 111.419C78.2478 109.241 81.1995 108.016 84.2785 108.012H328.789C331.868 108.016 334.82 109.241 336.997 111.419C339.174 113.597 340.399 116.549 340.404 119.629V159.266Z" fill="#3F3D56"/>
<path d="M134.037 162.047C129.568 162.047 125.2 160.722 121.485 158.238C117.769 155.755 114.873 152.226 113.163 148.096C111.453 143.966 111.006 139.422 111.877 135.039C112.749 130.655 114.901 126.628 118.061 123.467C121.22 120.307 125.246 118.154 129.629 117.282C134.011 116.41 138.554 116.858 142.683 118.568C146.811 120.279 150.34 123.175 152.822 126.892C155.305 130.608 156.63 134.978 156.63 139.447C156.623 145.439 154.241 151.183 150.005 155.42C145.77 159.657 140.027 162.04 134.037 162.047Z" fill="#B78BFF"/>
<path d="M295.428 157.899H177.993C176.544 157.899 175.153 157.323 174.128 156.298C173.103 155.273 172.528 153.882 172.528 152.432C172.528 150.982 173.103 149.591 174.128 148.566C175.153 147.541 176.544 146.965 177.993 146.965H295.428C296.877 146.965 298.268 147.541 299.293 148.566C300.318 149.591 300.893 150.982 300.893 152.432C300.893 153.882 300.318 155.273 299.293 156.298C298.268 157.323 296.877 157.899 295.428 157.899Z" fill="#CCCCCC"/>
<path d="M216.859 134.664H177.993C177.275 134.664 176.565 134.522 175.902 134.248C175.238 133.973 174.636 133.57 174.128 133.062C173.621 132.555 173.218 131.952 172.944 131.289C172.669 130.626 172.528 129.915 172.528 129.197C172.528 128.479 172.669 127.768 172.944 127.104C173.218 126.441 173.621 125.838 174.128 125.331C174.636 124.823 175.238 124.42 175.902 124.146C176.565 123.871 177.275 123.729 177.993 123.729H216.859C218.309 123.729 219.699 124.306 220.724 125.331C221.749 126.356 222.325 127.747 222.325 129.197C222.325 130.647 221.749 132.037 220.724 133.062C219.699 134.088 218.309 134.664 216.859 134.664Z" fill="#CCCCCC"/>
<path d="M132.883 147.397C132.322 147.398 131.777 147.216 131.328 146.88L131.3 146.859L125.444 142.378C125.173 142.171 124.944 141.911 124.773 141.615C124.601 141.319 124.49 140.992 124.445 140.653C124.4 140.314 124.422 139.969 124.51 139.638C124.598 139.308 124.751 138.998 124.959 138.726C125.167 138.455 125.427 138.227 125.723 138.056C126.019 137.885 126.346 137.774 126.686 137.729C127.025 137.685 127.369 137.707 127.7 137.796C128.03 137.885 128.34 138.038 128.611 138.247L132.404 141.156L141.367 129.46C141.575 129.189 141.834 128.961 142.13 128.79C142.426 128.619 142.752 128.508 143.091 128.463C143.429 128.419 143.774 128.441 144.104 128.529C144.434 128.618 144.743 128.77 145.014 128.978L145.015 128.979L144.959 129.056L145.016 128.979C145.563 129.399 145.921 130.019 146.011 130.703C146.101 131.387 145.917 132.079 145.497 132.627L134.955 146.379C134.711 146.696 134.397 146.952 134.039 147.128C133.68 147.304 133.285 147.395 132.885 147.394L132.883 147.397Z" fill="white"/>
<path d="M76.3497 115.586C75.3671 115.17 74.3054 114.975 73.2393 115.014C72.1732 115.053 71.1287 115.326 70.1792 115.813C69.2298 116.299 68.3986 116.988 67.7442 117.831C67.0897 118.674 66.628 119.65 66.3914 120.69L49.9552 123.507L49.2302 133.915L72.3854 129.612C74.1594 129.893 75.9749 129.514 77.4881 128.546C79.0013 127.578 80.107 126.089 80.5956 124.36C81.0843 122.631 80.922 120.783 80.1394 119.166C79.3568 117.549 78.0084 116.275 76.3497 115.586Z" fill="#FFB8B8"/>
<path d="M48.1162 85.711C50.4978 86.7812 52.3762 88.7274 53.3618 91.1457C54.3474 93.5641 54.3646 96.2691 53.4099 98.6999L43.8825 122.957L55.8434 120.758C56.5902 120.621 57.3616 120.761 58.0121 121.153C58.6626 121.545 59.1475 122.162 59.3754 122.886L61.7598 130.466C61.8843 130.862 61.9285 131.279 61.8896 131.692C61.8507 132.105 61.7297 132.506 61.5335 132.872C61.3372 133.238 61.0699 133.561 60.7471 133.822C60.4243 134.083 60.0527 134.277 59.6539 134.392L44.1075 138.882C42.141 139.45 40.0695 139.554 38.0559 139.186C36.0422 138.819 34.1411 137.989 32.5019 136.763C30.8626 135.537 29.5297 133.948 28.6079 132.12C27.6861 130.292 27.2005 128.275 27.1891 126.227C27.1838 125.27 27.2821 124.316 27.4823 123.38L34.0146 92.8553C34.3318 91.373 34.9765 89.9804 35.9014 88.7795C36.8263 87.5786 38.008 86.5999 39.3599 85.9149C40.7119 85.23 42.1999 84.8562 43.715 84.8209C45.2301 84.7856 46.7338 85.0897 48.1162 85.711Z" fill="#CCCCCC"/>
</g>
<defs>
<clipPath id="clip0_201_1217">
<rect width="446.829" height="320" fill="white"/>
</clipPath>
</defs>
</svg>
