<svg width="517" height="320" viewBox="0 0 517 320" fill="none" xmlns="http://www.w3.org/2000/svg">
<g clip-path="url(#clip0_201_1282)">
<path d="M449.005 250.923C448.89 250.777 448.776 250.631 448.663 250.485C448.549 250.338 448.437 250.192 448.324 250.044C448.212 249.897 448.1 249.75 447.989 249.602C447.878 249.454 447.767 249.305 447.657 249.156C447.472 244.868 447.47 240.617 447.649 236.405C447.824 232.222 448.179 228.09 448.712 224.008C449.238 219.957 449.936 215.968 450.805 212.041C451.667 208.145 452.694 204.322 453.887 200.573C454.023 200.141 454.161 199.711 454.302 199.282C454.442 198.853 454.586 198.427 454.732 198.004C454.877 197.578 455.025 197.155 455.176 196.734C455.326 196.312 455.479 195.892 455.634 195.474C456.782 192.343 458.047 189.289 459.427 186.312C460.797 183.356 462.277 180.481 463.867 177.688C465.445 174.914 467.127 172.226 468.913 169.624C470.687 167.041 472.559 164.548 474.53 162.145L474.841 161.768L475.152 161.394L475.465 161.021L475.778 160.65L476.005 160.384L476.233 160.118C476.309 160.03 476.386 159.943 476.463 159.855C476.54 159.768 476.618 159.682 476.698 159.596L476.885 159.494L477.071 159.392L477.257 159.291L477.441 159.19L477.453 159.186L477.464 159.181L477.476 159.175L477.488 159.171L477.562 159.13L477.636 159.089L477.708 159.048L477.778 159.006L478.1 158.834L478.421 158.664L478.742 158.495L479.06 158.324L478.817 158.202L478.207 157.899L478.211 157.896C478.264 157.919 478.316 157.942 478.367 157.967C478.419 157.992 478.47 158.016 478.523 158.039C478.575 158.063 478.627 158.088 478.678 158.112C478.728 158.136 478.78 158.161 478.832 158.187L478.891 158.212L478.95 158.237L479.011 158.263C479.031 158.271 479.05 158.281 479.069 158.292C479.086 158.301 479.103 158.308 479.122 158.314L479.174 158.336L479.227 158.359L479.279 158.381C481.501 159.399 483.728 160.432 485.926 161.515C488.124 162.598 490.289 163.727 492.395 164.942C494.495 166.147 496.53 167.462 498.492 168.881C500.449 170.293 502.301 171.845 504.034 173.524C505.862 175.309 507.497 177.282 508.913 179.409C510.312 181.499 511.463 183.745 512.343 186.102C513.188 188.345 513.692 190.702 513.837 193.095C513.977 195.396 513.653 197.702 512.885 199.876C512.781 200.159 512.669 200.439 512.549 200.715C512.428 200.99 512.3 201.261 512.164 201.529C512.028 201.796 511.884 202.058 511.731 202.316C511.579 202.574 511.419 202.827 511.251 203.075C511.182 203.179 511.11 203.281 511.037 203.383C510.965 203.485 510.891 203.585 510.816 203.685C510.741 203.785 510.665 203.885 510.589 203.984C510.512 204.083 510.434 204.181 510.356 204.279C508.901 206.106 507.052 207.582 504.947 208.596C502.831 209.607 500.53 210.177 498.187 210.272C495.723 210.375 493.263 210.018 490.93 209.219C488.429 208.366 486.104 207.063 484.071 205.374C483.369 204.794 482.703 204.17 482.078 203.508C481.458 202.851 480.88 202.157 480.347 201.428C479.818 200.706 479.335 199.952 478.901 199.169C478.471 198.392 478.092 197.588 477.765 196.762C477.612 199.328 478.011 201.897 478.934 204.296C479.908 206.818 481.233 209.19 482.869 211.344C484.597 213.637 486.514 215.781 488.6 217.753C490.7 219.766 492.931 221.652 495.134 223.39C497.338 225.128 499.619 226.905 501.828 228.758C504.035 230.58 506.135 232.527 508.119 234.588C510.044 236.58 511.746 238.775 513.196 241.134C514.62 243.463 515.65 246.01 516.244 248.675C516.879 251.577 516.847 254.585 516.15 257.473C515.811 258.878 515.328 260.244 514.709 261.551C514.085 262.868 513.337 264.122 512.476 265.298L512.395 265.405L512.315 265.512L512.232 265.619L512.149 265.725C510.047 268.471 507.408 270.76 504.394 272.455C502.876 273.307 501.276 274.005 499.619 274.538C497.923 275.084 496.176 275.459 494.405 275.66C491.036 275.97 487.639 275.775 484.327 275.083C480.917 274.369 477.602 273.261 474.449 271.78C471.188 270.255 468.072 268.44 465.137 266.357C462.176 264.263 459.373 261.955 456.75 259.451C456.053 258.787 455.369 258.111 454.697 257.423C454.025 256.735 453.366 256.035 452.72 255.324C452.073 254.612 451.44 253.89 450.822 253.157C450.204 252.424 449.598 251.679 449.005 250.923Z" fill="#F2F2F2"/>
<path d="M503.173 201.239C501.091 200.159 499.089 198.931 497.182 197.565C493.374 194.837 489.971 191.583 487.076 187.9C485.641 186.073 484.341 184.144 483.186 182.128C482.223 180.424 481.368 178.662 480.626 176.851C479.902 175.085 479.293 173.273 478.803 171.428C478.325 169.626 477.969 167.793 477.736 165.943C477.509 164.131 477.409 162.305 477.437 160.479C477.44 160.376 477.442 160.273 477.444 160.172C477.447 160.07 477.449 159.968 477.452 159.865C477.454 159.762 477.458 159.66 477.464 159.56L477.479 159.256C477.391 159.325 477.304 159.395 477.217 159.465L476.956 159.677L476.697 159.89L476.439 160.104L476.272 160.242L476.106 160.38L475.94 160.519L475.776 160.659L476.002 160.393L476.234 160.119C476.311 160.031 476.388 159.943 476.465 159.856C476.542 159.769 476.62 159.682 476.7 159.597L476.887 159.494L477.073 159.393L477.254 159.292L477.439 159.191L477.45 159.187L477.462 159.182L477.474 159.176L477.485 159.172L477.56 159.131L477.634 159.09L477.706 159.049L477.776 159.008L478.098 158.835L478.419 158.665L478.74 158.496L479.061 158.326L478.81 158.202L478.2 157.898L478.204 157.895C478.257 157.918 478.309 157.941 478.36 157.966C478.412 157.991 478.463 158.015 478.516 158.038C478.568 158.063 478.62 158.087 478.67 158.111C478.721 158.135 478.773 158.16 478.825 158.186L478.883 158.211L478.943 158.236L479.004 158.262C479.024 158.27 479.043 158.279 479.061 158.29L479.056 158.387L479.049 158.478L479.044 158.568L479.039 158.66C478.814 161.736 478.974 164.828 479.516 167.864C480.074 170.99 480.988 174.041 482.243 176.958C483.539 179.977 485.159 182.847 487.074 185.517C489.054 188.279 491.322 190.822 493.84 193.104C496.374 195.369 499.139 197.363 502.089 199.053C503.546 199.887 505.046 200.644 506.583 201.319C508.107 201.988 509.666 202.574 511.254 203.073C511.184 203.177 511.113 203.28 511.04 203.381C510.967 203.483 510.893 203.584 510.819 203.684C510.744 203.783 510.668 203.883 510.591 203.982C510.515 204.081 510.437 204.179 510.358 204.277C509.746 204.074 509.137 203.859 508.531 203.63C507.926 203.402 507.323 203.16 506.723 202.907C506.123 202.653 505.528 202.387 504.937 202.109C504.345 201.83 503.757 201.54 503.173 201.239Z" fill="white"/>
<path d="M461.956 224.229C461.274 223.212 460.63 222.176 460.025 221.121C459.42 220.066 458.854 218.996 458.328 217.911C457.802 216.827 457.317 215.728 456.871 214.616C456.425 213.504 456.022 212.383 455.66 211.251C455.475 210.651 455.305 210.049 455.149 209.444C454.993 208.84 454.852 208.235 454.725 207.628C454.598 207.022 454.486 206.415 454.388 205.806C454.289 205.197 454.207 204.588 454.139 203.98C454.105 203.697 454.074 203.413 454.046 203.128C454.019 202.844 453.995 202.56 453.974 202.276C453.953 201.992 453.935 201.708 453.92 201.424C453.905 201.14 453.893 200.857 453.884 200.574C454.02 200.142 454.158 199.712 454.299 199.283C454.44 198.854 454.583 198.427 454.728 198.002C454.874 197.576 455.022 197.153 455.172 196.732C455.323 196.31 455.476 195.89 455.631 195.472C455.597 195.822 455.568 196.174 455.544 196.526C455.52 196.878 455.501 197.231 455.487 197.586C455.473 197.94 455.463 198.295 455.459 198.652C455.455 199.008 455.456 199.364 455.461 199.722C455.461 199.917 455.462 200.112 455.466 200.306C455.471 200.501 455.476 200.696 455.482 200.891C455.489 201.085 455.498 201.28 455.508 201.475C455.518 201.67 455.529 201.865 455.543 202.06C455.692 204.246 456.036 206.414 456.568 208.54C457.107 210.691 457.811 212.798 458.672 214.842C459.55 216.926 460.562 218.95 461.703 220.902C462.862 222.888 464.131 224.809 465.501 226.656C466.977 228.65 468.537 230.591 470.18 232.48C471.824 234.369 473.53 236.207 475.299 237.992C477.069 239.776 478.891 241.505 480.765 243.178C482.639 244.852 484.544 246.467 486.481 248.025C488.464 249.625 490.487 251.163 492.55 252.641C494.614 254.119 496.711 255.532 498.841 256.88C500.971 258.228 503.133 259.511 505.326 260.727C507.52 261.944 509.739 263.091 511.982 264.168C512.085 264.219 512.178 264.287 512.257 264.371C512.333 264.453 512.395 264.547 512.44 264.65C512.484 264.752 512.511 264.86 512.517 264.971C512.524 265.082 512.51 265.194 512.474 265.3C512.463 265.345 512.447 265.39 512.426 265.432C512.406 265.474 512.382 265.513 512.355 265.549C512.327 265.585 512.296 265.619 512.261 265.648C512.227 265.678 512.189 265.703 512.149 265.725C512.107 265.744 512.063 265.758 512.018 265.766C511.972 265.774 511.926 265.776 511.879 265.773C511.832 265.77 511.785 265.761 511.74 265.747C511.693 265.733 511.648 265.714 511.606 265.69C511.329 265.557 511.051 265.423 510.775 265.289C510.498 265.155 510.221 265.021 509.945 264.885C509.669 264.749 509.394 264.613 509.119 264.474C508.843 264.336 508.569 264.196 508.294 264.054C506.007 262.88 503.751 261.636 501.526 260.321C499.3 259.007 497.108 257.624 494.95 256.172C492.792 254.721 490.673 253.204 488.593 251.623C486.513 250.041 484.477 248.396 482.485 246.689C480.56 245.045 478.661 243.346 476.806 241.588C474.952 239.831 473.144 238.018 471.404 236.146C469.664 234.275 467.992 232.347 466.409 230.36C464.826 228.373 463.336 226.331 461.956 224.229Z" fill="white"/>
<path d="M505.031 60.9369L503.393 61.1495L514.375 19.9586C515.184 17.2082 515.316 14.3029 514.759 11.4906C514.275 9.19267 513.08 7.10515 511.343 5.52425C509.523 3.94357 507.294 2.90931 504.911 2.5408C502.009 2.09167 499.046 2.22423 496.196 2.93076L421.561 19.917C418.956 20.5487 416.463 21.5738 414.167 22.9569C411.67 24.4407 409.348 26.2001 407.245 28.2021C405.081 30.2435 403.138 32.5075 401.449 34.9563C399.8 37.3266 398.455 39.8948 397.447 42.6005L319.356 257.252C318.058 260.781 317.214 264.461 316.846 268.204C316.504 271.526 316.666 274.881 317.325 278.155C317.875 281 319.024 283.696 320.695 286.063C322.228 288.216 324.388 289.844 326.88 290.726L405.737 317.856C409.24 319.048 413 319.272 416.62 318.503C420.49 317.661 424.129 315.986 427.285 313.595C430.829 310.934 433.877 307.67 436.289 303.953C438.96 299.868 440.955 295.381 442.199 290.663L495.067 92.3695L496.726 92.2366L505.031 60.9369Z" fill="#2F2E41"/>
<path d="M499.326 58.6566L497.688 58.8692L508.67 17.6784C509.479 14.9279 509.611 12.0227 509.054 9.21033C508.571 6.9124 507.375 4.82488 505.638 3.24398C503.818 1.6633 501.589 0.629039 499.206 0.260529C496.304 -0.188599 493.342 -0.056041 490.491 0.650488L415.856 17.6368C413.251 18.2684 410.758 19.2935 408.462 20.6767C405.965 22.1604 403.643 23.9198 401.54 25.9218C399.376 27.9633 397.433 30.2272 395.744 32.676C394.095 35.0463 392.75 37.6146 391.742 40.3203L313.651 254.971C312.353 258.501 311.51 262.181 311.141 265.923C310.8 269.246 310.961 272.601 311.62 275.875C312.17 278.72 313.319 281.415 314.99 283.783C316.523 285.936 318.683 287.564 321.175 288.445L400.032 315.575C403.535 316.767 407.295 316.991 410.915 316.223C414.785 315.381 418.424 313.706 421.58 311.315C425.124 308.654 428.172 305.39 430.584 301.672C433.255 297.588 435.251 293.101 436.495 288.383L489.362 90.0892L491.021 89.9564L499.326 58.6566Z" fill="#3F3D56"/>
<path d="M489.831 6.02525L478.86 8.42718C478.98 9.37579 478.886 10.3392 478.584 11.2464C478.242 12.3077 477.746 13.313 477.112 14.2305C475.686 16.3133 473.782 18.0254 471.559 19.2242C471.293 19.3656 471.028 19.4961 470.763 19.6159C470.499 19.7356 470.235 19.8443 469.97 19.942C469.707 20.0397 469.446 20.1259 469.186 20.2008C468.926 20.2757 468.67 20.3388 468.416 20.3901L425.521 29.0702C424.725 29.255 423.897 29.2456 423.105 29.0429C422.468 28.872 421.906 28.4936 421.508 27.9676C421.107 27.4028 420.88 26.7328 420.856 26.0406C420.824 25.1576 420.963 24.2766 421.268 23.4471C421.344 23.2232 421.431 22.9978 421.528 22.7709C421.625 22.544 421.731 22.3171 421.846 22.0902C421.96 21.8621 422.085 21.6352 422.22 21.4095C422.355 21.1837 422.497 20.9581 422.647 20.7327L414.525 22.5109C412.569 22.9694 410.696 23.7271 408.971 24.7572C407.086 25.8667 405.334 27.1864 403.748 28.6911C402.112 30.2284 400.645 31.9355 399.372 33.7834C398.13 35.5692 397.121 37.5054 396.368 39.5457L318.425 256.062C317.455 258.723 316.833 261.497 316.573 264.316C316.332 266.805 316.474 269.316 316.993 271.762C317.425 273.876 318.308 275.873 319.582 277.615C320.749 279.196 322.376 280.378 324.241 280.999L403.678 306.79C406.298 307.63 409.096 307.755 411.782 307.153C414.642 306.499 417.328 305.239 419.66 303.459C422.268 301.486 424.514 299.074 426.296 296.333C428.268 293.322 429.749 290.016 430.681 286.539L503.262 18.8764C503.871 16.8332 503.983 14.6743 503.591 12.5788C503.25 10.8616 502.381 9.29358 501.105 8.09366C499.768 6.89399 498.117 6.09892 496.346 5.80119C494.181 5.43796 491.966 5.51416 489.831 6.02525Z" fill="white"/>
<path d="M447.231 108.57H289.209V55.0549H447.231V108.57Z" fill="white"/>
<path d="M401.032 127.458H246.16V202.484H401.032V127.458Z" fill="white"/>
<path d="M271.32 163.485C277.507 163.485 282.522 158.473 282.522 152.29C282.522 146.107 277.507 141.094 271.32 141.094C265.133 141.094 260.118 146.107 260.118 152.29C260.118 158.473 265.133 163.485 271.32 163.485Z" fill="#B78BFF"/>
<path d="M297.192 144.826C296.697 144.826 296.222 145.023 295.872 145.373C295.522 145.723 295.325 146.197 295.325 146.692C295.325 147.187 295.522 147.662 295.872 148.011C296.222 148.361 296.697 148.558 297.192 148.558H385.211C385.706 148.557 386.179 148.36 386.529 148.01C386.878 147.66 387.074 147.186 387.074 146.692C387.074 146.198 386.878 145.724 386.529 145.374C386.179 145.025 385.706 144.827 385.211 144.826H297.192Z" fill="#E6E6E6"/>
<path d="M297.192 156.021C296.947 156.021 296.704 156.068 296.477 156.161C296.25 156.254 296.043 156.391 295.869 156.564C295.695 156.737 295.557 156.943 295.463 157.169C295.368 157.395 295.319 157.638 295.319 157.883C295.318 158.129 295.366 158.372 295.46 158.598C295.553 158.825 295.69 159.031 295.864 159.205C296.037 159.378 296.243 159.516 296.469 159.61C296.696 159.705 296.939 159.753 297.184 159.753H335.067C335.312 159.753 335.555 159.705 335.782 159.611C336.008 159.517 336.214 159.38 336.387 159.207C336.561 159.034 336.698 158.828 336.792 158.601C336.886 158.375 336.934 158.132 336.934 157.887C336.934 157.642 336.886 157.4 336.792 157.173C336.698 156.947 336.561 156.741 336.387 156.568C336.214 156.395 336.008 156.257 335.782 156.164C335.555 156.07 335.312 156.021 335.067 156.021H297.192Z" fill="#E6E6E6"/>
<path d="M262.727 173.92C261.307 173.92 260.151 174.757 260.151 175.786C260.151 176.814 261.307 177.651 262.727 177.651H384.167C385.587 177.651 386.743 176.814 386.743 175.786C386.743 174.757 385.587 173.92 384.167 173.92H262.727Z" fill="#E6E6E6"/>
<path d="M262.727 185.115C261.307 185.115 260.151 185.952 260.151 186.981C260.151 188.01 261.307 188.847 262.727 188.847H356.213C357.633 188.847 358.789 188.01 358.789 186.981C358.789 185.952 357.633 185.115 356.213 185.115H262.727Z" fill="#E6E6E6"/>
<path d="M402.607 204.058H244.585V125.884H402.607V204.058ZM247.735 200.91H399.457V129.031H247.735V200.91Z" fill="#E6E6E6"/>
<path d="M315.944 92.6564C322.131 92.6564 327.146 87.644 327.146 81.461C327.146 75.278 322.131 70.2656 315.944 70.2656C309.757 70.2656 304.741 75.278 304.741 81.461C304.741 87.644 309.757 92.6564 315.944 92.6564Z" fill="#B78BFF"/>
<path d="M341.816 73.9973C341.321 73.9973 340.846 74.1939 340.496 74.5438C340.146 74.8938 339.949 75.3683 339.949 75.8632C339.949 76.3581 340.146 76.8327 340.496 77.1826C340.846 77.5325 341.321 77.7291 341.816 77.7291H429.835C430.33 77.7279 430.803 77.5308 431.153 77.181C431.502 76.8312 431.698 76.3573 431.698 75.8632C431.698 75.3691 431.502 74.8953 431.153 74.5455C430.803 74.1957 430.33 73.9985 429.835 73.9973H341.816Z" fill="#E6E6E6"/>
<path d="M341.816 85.1926C341.571 85.1918 341.328 85.2393 341.101 85.3325C340.874 85.4256 340.667 85.5626 340.493 85.7355C340.319 85.9084 340.181 86.114 340.087 86.3403C339.992 86.5666 339.943 86.8094 339.943 87.0546C339.942 87.2998 339.99 87.5428 340.084 87.7695C340.177 87.9962 340.315 88.2023 340.488 88.376C340.661 88.5497 340.867 88.6875 341.093 88.7816C341.32 88.8757 341.563 88.9242 341.808 88.9244H411.068C411.563 88.9244 412.038 88.7278 412.388 88.3779C412.738 88.028 412.935 87.5534 412.935 87.0585C412.935 86.5637 412.738 86.0891 412.388 85.7392C412.038 85.3892 411.563 85.1926 411.068 85.1926H341.816Z" fill="#E6E6E6"/>
<path d="M447.231 108.57H289.209V55.0549H447.231V108.57ZM292.359 105.422H444.081V58.2029H292.359V105.422Z" fill="#E6E6E6"/>
<path d="M136.736 312.421H144.702L148.492 281.715L136.734 281.715L136.736 312.421Z" fill="#FFB6B6"/>
<path d="M160.065 319.812L135.029 319.813L135.029 310.147L151.572 310.146C153.824 310.146 155.984 311.04 157.577 312.632C159.17 314.223 160.065 316.382 160.065 318.633L160.065 319.812Z" fill="#2F2E41"/>
<path d="M57.0825 302.104L64.0629 305.939L82.1872 280.857L71.8848 275.197L57.0825 302.104Z" fill="#FFB6B6"/>
<path d="M73.9615 319.813L52.0231 307.76L56.6832 299.289L71.1794 307.253C73.1532 308.338 74.6151 310.162 75.2434 312.323C75.8718 314.485 75.6152 316.807 74.5301 318.78L73.9615 319.813Z" fill="#2F2E41"/>
<path d="M136.364 295.378C135.654 295.377 134.969 295.118 134.436 294.65C133.903 294.181 133.558 293.535 133.467 292.832L123.505 216.113C123.461 215.774 123.311 215.457 123.076 215.208C122.841 214.959 122.533 214.791 122.197 214.727C121.861 214.663 121.513 214.707 121.203 214.853C120.893 214.999 120.637 215.238 120.472 215.538L78.9536 290.816C78.611 291.431 78.0591 291.902 77.3982 292.145C76.7373 292.387 76.0113 292.385 75.3522 292.137L66.3025 288.691C65.9385 288.553 65.6059 288.343 65.3242 288.074C65.0425 287.805 64.8173 287.483 64.662 287.126C64.5067 286.769 64.4243 286.385 64.4198 285.995C64.4152 285.606 64.4885 285.22 64.6353 284.859L93.3959 214.252C93.4687 214.073 93.5181 213.885 93.5428 213.693C97.4383 183.561 107.35 168.238 110.294 164.26C110.51 163.967 110.651 163.627 110.707 163.269C110.763 162.91 110.732 162.543 110.617 162.199L110.212 160.986C110.05 160.504 110.017 159.988 110.116 159.49C110.214 158.992 110.441 158.527 110.774 158.144C121.386 146.065 139.881 152.656 140.066 152.724L140.159 152.758L140.217 152.837C160.955 181.26 153.288 273.578 151.54 291.796C151.475 292.481 151.169 293.12 150.678 293.601C150.186 294.083 149.54 294.375 148.854 294.426L136.591 295.369C136.515 295.375 136.439 295.378 136.364 295.378Z" fill="#2F2E41"/>
<path d="M130.741 82.2051C140.532 82.2051 148.469 74.2731 148.469 64.4885C148.469 54.7039 140.532 46.772 130.741 46.772C120.95 46.772 113.013 54.7039 113.013 64.4885C113.013 74.2731 120.95 82.2051 130.741 82.2051Z" fill="#FFB8B8"/>
<path d="M103.334 177.223L155.499 181.967C150.951 166.163 146.784 150.415 150.18 134.723C154.493 120.714 154.894 112.954 143.517 106.356L135.835 89.2304L121.932 88.7251L115.152 86.8682C109.675 95.6688 107.435 106.1 108.816 116.372C111.763 138.709 110.967 159.436 103.334 177.223Z" fill="#B78BFF"/>
<path d="M111.252 98.1646L106.005 74.0969C104.91 68.3998 105.185 62.5242 106.806 56.9539C106.983 56.3831 107.196 55.8241 107.443 55.2803C108.896 52.1169 111.18 49.4064 114.051 47.4372C116.923 45.468 120.275 44.3139 123.751 44.0977C135.676 43.2746 137.427 44.5309 137.858 45.1506C144.596 44.8786 149.821 47.4803 152.205 52.2949C152.439 52.7728 152.564 53.2961 152.574 53.8278C152.583 54.3595 152.476 54.8868 152.259 55.3725C152.042 55.8583 151.721 56.2906 151.32 56.6391C150.918 56.9876 150.444 57.2437 149.932 57.3896C146.602 58.3491 141.921 59.4151 138.411 59.1016C131.374 67.5365 134.25 82.9908 141.39 92.1988L141.67 92.5607L134.597 94.0094L126.377 82.5699C126.215 82.3436 125.979 82.1799 125.71 82.1062C125.441 82.0325 125.155 82.0534 124.9 82.1652C124.644 82.277 124.435 82.4731 124.307 82.7206C124.179 82.9681 124.14 83.2521 124.196 83.525L126.691 95.6407L111.252 98.1646Z" fill="#2F2E41"/>
<path d="M494.655 320H0V318.757H494.88L494.655 320Z" fill="#CACACA"/>
<path d="M212.58 162.972L83.5591 254.152L52.6412 210.458L181.662 119.278L212.58 162.972Z" fill="white"/>
<path d="M96.1934 225.733C101.245 222.163 102.444 215.177 98.8719 210.128C95.2997 205.08 88.3089 203.882 83.2574 207.452C78.2059 211.022 77.0067 218.008 80.5789 223.056C84.1511 228.105 91.1419 229.303 96.1934 225.733Z" fill="#B78BFF"/>
<path d="M106.537 195.57C106.133 195.855 105.859 196.29 105.775 196.778C105.692 197.265 105.805 197.766 106.091 198.17C106.377 198.575 106.812 198.849 107.3 198.932C107.788 199.016 108.289 198.902 108.694 198.617L180.559 147.828C180.962 147.542 181.235 147.108 181.318 146.621C181.401 146.134 181.287 145.634 181.002 145.23C180.716 144.827 180.282 144.553 179.795 144.469C179.308 144.385 178.807 144.497 178.403 144.781L106.537 195.57Z" fill="#E6E6E6"/>
<path d="M113.006 204.71C112.601 204.996 112.327 205.429 112.242 205.917C112.158 206.404 112.27 206.905 112.555 207.309C112.84 207.714 113.274 207.988 113.761 208.073C114.249 208.158 114.75 208.046 115.155 207.762L115.162 207.757L171.704 167.798C172.108 167.513 172.382 167.078 172.466 166.59C172.55 166.103 172.436 165.602 172.15 165.198C172.009 164.997 171.829 164.827 171.622 164.697C171.414 164.566 171.183 164.477 170.941 164.436C170.453 164.352 169.952 164.466 169.548 164.751L113.006 204.71Z" fill="#E6E6E6"/>
<path d="M212.58 162.972L83.5591 254.152L52.6412 210.458L181.662 119.278L212.58 162.972ZM84.3123 249.764L208.189 162.219L180.909 123.666L57.0318 211.211L84.3123 249.764Z" fill="#E6E6E6"/>
<path d="M507.186 146.783C507.643 146.766 508.099 146.843 508.525 147.011C508.929 147.173 509.296 147.417 509.602 147.727C509.909 148.039 510.148 148.41 510.306 148.819C510.472 149.251 510.547 149.713 510.528 150.177C510.51 150.652 510.399 151.119 510.202 151.552C510.01 151.976 509.743 152.363 509.413 152.692C509.085 153.02 508.7 153.285 508.278 153.474C507.848 153.667 507.385 153.773 506.915 153.785C506.457 153.799 506.001 153.718 505.576 153.545C505.174 153.381 504.81 153.136 504.507 152.824C504.203 152.511 503.966 152.14 503.811 151.732C503.647 151.301 503.574 150.841 503.594 150.38C503.613 149.907 503.723 149.443 503.919 149.012C504.11 148.591 504.375 148.209 504.701 147.882C505.026 147.555 505.408 147.29 505.828 147.099C506.256 146.906 506.717 146.798 507.186 146.783Z" fill="#F2F2F2"/>
<path d="M144.449 191.231L136.059 145.394L136.65 117.048L117.741 116.457L121.286 148.347L133.513 192.568C132.498 193.8 131.876 195.309 131.728 196.898C131.579 198.487 131.91 200.085 132.679 201.484C133.448 202.883 134.618 204.02 136.04 204.748C137.461 205.476 139.069 205.762 140.654 205.568C142.24 205.374 143.731 204.71 144.935 203.661C146.139 202.612 147.001 201.227 147.409 199.684C147.818 198.14 147.754 196.51 147.227 195.004C146.699 193.497 145.732 192.183 144.449 191.231Z" fill="#FFB8B8"/>
<path d="M116.559 119.41C123.41 116.802 130.981 116.802 137.832 119.41L136.65 95.7877C136.65 94.5468 136.406 93.3181 135.931 92.1718C135.456 91.0254 134.759 89.9838 133.881 89.1064C133.003 88.229 131.961 87.5329 130.814 87.0581C129.667 86.5833 128.437 86.3389 127.196 86.3389C125.954 86.3389 124.725 86.5833 123.578 87.0581C122.43 87.5329 121.388 88.229 120.51 89.1064C119.632 89.9838 118.936 91.0254 118.461 92.1718C117.985 93.3181 117.741 94.5468 117.741 95.7877L116.559 119.41Z" fill="#B78BFF"/>
</g>
<defs>
<clipPath id="clip0_201_1282">
<rect width="516.697" height="320" fill="white"/>
</clipPath>
</defs>
</svg>
