<svg width="382" height="320" viewBox="0 0 382 320" fill="none" xmlns="http://www.w3.org/2000/svg">
<g clip-path="url(#clip0_201_1161)">
<path d="M259.728 20.7509H122.139C119.38 20.7509 116.733 19.6578 114.782 17.712C112.832 15.7663 111.735 13.1272 111.735 10.3755C111.735 7.62373 112.832 4.98468 114.782 3.0389C116.733 1.09312 119.38 0 122.139 0H259.728C262.487 0 265.134 1.09312 267.085 3.0389C269.035 4.98468 270.131 7.62373 270.131 10.3755C270.131 13.1272 269.035 15.7663 267.085 17.712C265.134 19.6578 262.487 20.7509 259.728 20.7509Z" fill="#B78BFF"/>
<path d="M380.25 37.3421H1.61648C1.18452 37.3326 0.773471 37.1548 0.471347 36.8468C0.169224 36.5387 4.57764e-05 36.1249 4.57764e-05 35.694C4.57764e-05 35.2631 0.169224 34.8493 0.471347 34.5413C0.773471 34.2332 1.18452 34.0554 1.61648 34.0459H380.25C380.682 34.0554 381.093 34.2332 381.395 34.5413C381.697 34.8493 381.867 35.2631 381.867 35.694C381.867 36.1249 381.697 36.5387 381.395 36.8468C381.093 37.1548 380.682 37.3326 380.25 37.3421Z" fill="#E6E6E6"/>
<path d="M20.5253 16.2593C23.66 16.2593 26.2011 13.6684 26.2011 10.4724C26.2011 7.27642 23.66 4.68555 20.5253 4.68555C17.3906 4.68555 14.8495 7.27642 14.8495 10.4724C14.8495 13.6684 17.3906 16.2593 20.5253 16.2593Z" fill="#3F3D56"/>
<path d="M40.1327 16.2593C43.2674 16.2593 45.8085 13.6684 45.8085 10.4724C45.8085 7.27642 43.2674 4.68555 40.1327 4.68555C36.998 4.68555 34.4569 7.27642 34.4569 10.4724C34.4569 13.6684 36.998 16.2593 40.1327 16.2593Z" fill="#3F3D56"/>
<path d="M59.7401 16.2593C62.8747 16.2593 65.4159 13.6684 65.4159 10.4724C65.4159 7.27642 62.8747 4.68555 59.7401 4.68555C56.6054 4.68555 54.0643 7.27642 54.0643 10.4724C54.0643 13.6684 56.6054 16.2593 59.7401 16.2593Z" fill="#3F3D56"/>
<path d="M82.0977 15.0463C82.0083 15.0464 81.9198 15.0287 81.8374 14.9941C81.755 14.9595 81.6803 14.9088 81.6179 14.845L77.7882 10.9405C77.6654 10.8154 77.5967 10.6474 77.5967 10.4724C77.5967 10.2974 77.6654 10.1294 77.7882 10.0044L81.6179 6.10017C81.7428 5.9752 81.9121 5.90446 82.089 5.90333C82.2659 5.90221 82.4361 5.97079 82.5626 6.09417C82.6891 6.21755 82.7616 6.38575 82.7644 6.56217C82.7672 6.73859 82.7 6.90897 82.5775 7.03626L79.2069 10.4724L82.5775 13.9089C82.6698 14.0031 82.7323 14.1224 82.757 14.2518C82.7817 14.3813 82.7675 14.5151 82.7163 14.6365C82.6651 14.758 82.5791 14.8616 82.469 14.9345C82.359 15.0074 82.2298 15.0463 82.0977 15.0463Z" fill="#3F3D56"/>
<path d="M88.5331 15.0463C88.401 15.0463 88.2718 15.0074 88.1618 14.9345C88.0518 14.8616 87.9657 14.758 87.9145 14.6365C87.8633 14.5151 87.8491 14.3813 87.8738 14.2518C87.8985 14.1224 87.961 14.0031 88.0533 13.9089L91.4236 10.4724L88.0533 7.03626C87.9308 6.90897 87.8636 6.73859 87.8664 6.56217C87.8692 6.38575 87.9417 6.21755 88.0682 6.09417C88.1947 5.97079 88.3649 5.90221 88.5418 5.90333C88.7187 5.90446 88.888 5.9752 89.0129 6.10017L92.8423 10.0044C92.965 10.1294 93.0338 10.2974 93.0338 10.4724C93.0338 10.6474 92.965 10.8154 92.8423 10.9405L89.0129 14.845C88.9505 14.9088 88.8758 14.9595 88.7934 14.9941C88.711 15.0287 88.6225 15.0465 88.5331 15.0463Z" fill="#E6E6E6"/>
<path d="M340.825 5.35498C340.435 5.35546 340.061 5.51026 339.785 5.78544C339.509 6.06062 339.354 6.43369 339.353 6.82285V13.9279C339.354 14.317 339.509 14.6901 339.785 14.9653C340.061 15.2405 340.435 15.3953 340.825 15.3958H347.949C348.339 15.3953 348.713 15.2405 348.989 14.9653C349.265 14.6901 349.42 14.317 349.421 13.9279V6.82285C349.42 6.43369 349.265 6.06062 348.989 5.78544C348.713 5.51026 348.339 5.35546 347.949 5.35498H340.825Z" fill="#E6E6E6"/>
<path d="M323.374 5.35498C322.984 5.35546 322.61 5.51026 322.334 5.78544C322.058 6.06062 321.903 6.43369 321.903 6.82285V13.9279C321.903 14.317 322.058 14.6901 322.334 14.9653C322.61 15.2405 322.984 15.3953 323.374 15.3958H330.498C330.889 15.3953 331.263 15.2405 331.539 14.9653C331.814 14.6901 331.97 14.317 331.97 13.9279V6.82285C331.97 6.43369 331.814 6.06062 331.539 5.78544C331.263 5.51026 330.889 5.35546 330.498 5.35498H323.374Z" fill="#E6E6E6"/>
<path d="M357.268 5.68994C356.878 5.69042 356.504 5.84522 356.228 6.1204C355.952 6.39558 355.797 6.76865 355.797 7.15781V14.2628C355.797 14.652 355.952 15.0251 356.228 15.3003C356.504 15.5754 356.878 15.7302 357.268 15.7307H364.392C364.783 15.7302 365.157 15.5754 365.433 15.3003C365.708 15.0251 365.864 14.652 365.864 14.2628V7.15781C365.864 6.76865 365.708 6.39558 365.433 6.1204C365.157 5.84522 364.783 5.69042 364.392 5.68994H357.268Z" fill="#E6E6E6"/>
<path d="M275.836 155.967H106.03C101.938 155.962 98.0139 154.339 95.1199 151.452C92.226 148.566 90.5981 144.653 90.5935 140.571V77.6488C90.5982 73.567 92.226 69.6537 95.12 66.7674C98.014 63.8811 101.938 62.2576 106.03 62.2529H275.836C279.929 62.2576 283.853 63.8811 286.747 66.7674C289.641 69.6537 291.269 73.567 291.273 77.6488V140.571C291.269 144.653 289.641 148.566 286.747 151.452C283.853 154.339 279.929 155.962 275.836 155.967Z" fill="#F2F2F2"/>
<path d="M183.179 11.9711H126.257C125.782 11.9711 125.326 11.7827 124.989 11.4474C124.653 11.1121 124.464 10.6573 124.464 10.1831C124.464 9.70884 124.653 9.25405 124.989 8.91872C125.326 8.5834 125.782 8.39502 126.257 8.39502H183.179C183.654 8.39502 184.11 8.5834 184.447 8.91872C184.783 9.25405 184.972 9.70884 184.972 10.1831C184.972 10.6573 184.783 11.1121 184.447 11.4474C184.11 11.7827 183.654 11.9711 183.179 11.9711Z" fill="white"/>
<path d="M123.349 320L122.91 319.837C115.568 317.075 108.916 312.751 103.418 307.167C97.9202 301.582 93.7076 294.87 91.0731 287.497C89.6284 283.35 88.713 279.038 88.3485 274.663L88.3127 274.245L88.7262 274.319C93.6617 275.202 98.8428 275.691 101.151 275.882L88.2002 267.334L88.2236 266.89C88.3221 264.851 89.0308 262.887 90.2583 261.253C91.4857 259.619 93.1757 258.389 95.1105 257.721C97.0638 257.002 99.1883 256.882 101.21 257.378C103.232 257.873 105.059 258.961 106.456 260.502C107.743 261.895 109.105 263.299 110.421 264.656C114.944 269.318 119.622 274.139 122.579 279.831C124.776 284.161 125.974 288.926 126.088 293.777C126.202 298.629 125.228 303.444 123.236 307.872L123.349 320Z" fill="#F2F2F2"/>
<path d="M327.894 318.831L66.3216 319.037C66.2165 319.037 66.1123 319.017 66.0151 318.977C65.9179 318.937 65.8295 318.879 65.755 318.804C65.6806 318.73 65.6215 318.642 65.5812 318.546C65.5409 318.449 65.5202 318.345 65.5202 318.24C65.5202 318.135 65.5409 318.031 65.5812 317.935C65.6215 317.838 65.6806 317.75 65.755 317.676C65.8295 317.602 65.9179 317.543 66.0151 317.503C66.1123 317.463 66.2165 317.443 66.3216 317.443L327.894 317.237C327.999 317.237 328.103 317.257 328.2 317.297C328.297 317.337 328.386 317.396 328.46 317.47C328.535 317.544 328.594 317.632 328.634 317.729C328.674 317.826 328.695 317.929 328.695 318.034C328.695 318.139 328.674 318.243 328.634 318.34C328.594 318.437 328.535 318.525 328.46 318.599C328.386 318.673 328.297 318.731 328.2 318.771C328.103 318.811 327.999 318.832 327.894 318.831Z" fill="#CACACA"/>
<path d="M272.094 123.266L269.381 81.3557C269.261 79.5805 268.446 77.9235 267.111 76.7425C265.777 75.5614 264.031 74.9509 262.249 75.0427C261.327 75.0902 260.425 75.3244 259.597 75.7311C258.769 76.1377 258.033 76.7083 257.433 77.408C256.834 78.1077 256.383 78.9219 256.109 79.8009C255.835 80.6799 255.744 81.6053 255.84 82.5207L259.996 125.969L261.405 152.475C260.31 153.007 259.406 153.861 258.814 154.923C258.223 155.985 257.974 157.203 258.101 158.411C258.228 159.619 258.724 160.759 259.523 161.676C260.322 162.592 261.385 163.242 262.567 163.535C263.749 163.829 264.993 163.752 266.129 163.316C267.266 162.88 268.24 162.105 268.92 161.098C269.6 160.09 269.953 158.898 269.93 157.683C269.907 156.469 269.51 155.291 268.792 154.31L272.094 123.266Z" fill="#A0616A"/>
<path d="M273.795 89.647C274.092 89.3243 274.274 88.9134 274.313 88.4774C274.353 88.0415 274.248 87.6046 274.015 87.2339C273.735 86.7711 273.608 86.2328 273.65 85.6943C273.66 85.5903 273.676 85.487 273.699 85.3851C273.852 84.7743 273.855 84.1357 273.708 83.5236C273.561 82.9114 273.268 82.3436 272.853 81.8687C271.468 80.325 270.739 77.9388 270.384 75.8012C269.996 73.462 269.728 71.0667 268.789 68.8883C267.435 65.746 264.372 63.0122 260.379 64.5165C258.691 65.1827 257.285 66.4088 256.397 67.9883C254.497 71.2661 254.615 75.1425 254.764 78.8499L253.986 77.4108C254.219 81.4573 253.631 85.509 252.255 89.323C253.15 89.1163 253.831 90.3005 253.571 91.1789C253.311 92.0573 252.527 92.6566 251.859 93.2851C251.017 94.0774 250.237 95.2371 251.095 96.3707C251.307 96.6361 251.573 96.8548 251.875 97.013C252.176 97.1711 252.507 97.2654 252.847 97.2898C259.259 97.8881 265.725 97.1575 271.84 95.1439C273.198 94.6959 274.649 94.0894 275.318 92.829C275.988 91.5686 275.224 89.5759 273.795 89.647Z" fill="#B78BFF"/>
<path d="M226.327 303.396H218.919L215.394 274.897H226.328L226.327 303.396Z" fill="#A0616A"/>
<path d="M230.237 316.197H224.925L223.977 311.194L221.548 316.197H207.457C206.782 316.197 206.124 315.981 205.58 315.582C205.036 315.183 204.634 314.621 204.433 313.978C204.232 313.335 204.243 312.644 204.463 312.008C204.683 311.371 205.102 310.821 205.658 310.438L216.91 302.688V297.63L228.745 298.335L230.237 316.197Z" fill="#2F2E41"/>
<path d="M266.156 296.889L259.256 299.578L245.57 274.316L255.753 270.345L266.156 296.889Z" fill="#A0616A"/>
<path d="M274.47 307.392L269.522 309.321L266.813 305.006L266.377 310.547L253.253 315.663C252.624 315.908 251.933 315.946 251.281 315.772C250.628 315.598 250.049 315.22 249.627 314.694C249.205 314.168 248.963 313.521 248.935 312.848C248.908 312.175 249.097 311.511 249.475 310.953L257.126 299.649L255.28 294.938L266.56 291.297L274.47 307.392Z" fill="#2F2E41"/>
<path d="M261.497 119.151H226.935C226.935 119.151 213.919 211.858 213.882 212.027C213.844 212.195 221.227 214.873 217.871 218.22L214.516 221.567C211.831 224.244 216.508 233.393 216.508 233.393L211.16 287.836H233.25L244.047 175.379L229.441 229.293L248.47 287.836L262.169 279.803L264.853 272.44L259.52 267.121C259.52 267.121 258.142 259.126 258.142 254.403C258.142 249.681 262.169 253.697 258.142 249.681C256.399 247.943 251.494 226.622 251.494 226.622L267.538 175.379L271.361 152.505C272.344 146.609 271.459 140.553 268.83 135.182C266.704 130.835 264.026 125.141 261.497 119.151Z" fill="#2F2E41"/>
<path d="M263.511 62.2527L261.214 55.3801C260.703 53.851 259.745 52.509 258.464 51.5264C257.183 50.5439 255.637 49.9655 254.024 49.8656L251.983 49.7392C250.167 49.6267 248.366 50.1264 246.87 51.1579C245.373 52.1895 244.268 53.6929 243.731 55.4265C243.261 56.9604 242.342 58.3192 241.093 59.3292C239.843 60.3391 238.32 60.9542 236.718 61.0955C230.753 61.6024 221.898 63.4015 221.898 69.616C221.898 78.9874 231.966 103.755 229.952 105.763C227.939 107.771 223.241 116.046 225.925 118.481C226.625 119.116 226.061 122.167 225.837 124.353C225.431 128.311 253.443 119.56 261.497 121.828C269.551 124.096 265.524 107.102 266.867 105.763C268.127 104.231 269.25 102.592 270.223 100.865C270.699 100.07 271.034 99.1987 271.213 98.2903L273.525 86.6216C273.563 86.4273 273.594 86.237 273.618 86.0405C273.924 83.5429 275.711 66.7384 268.88 64.2609C261.497 61.5833 263.511 62.2527 263.511 62.2527Z" fill="#B78BFF"/>
<path d="M186.499 45.3912L217.11 74.2301C218.411 75.4481 220.139 76.1073 221.923 76.0654C223.707 76.0235 225.402 75.2839 226.644 74.0063C227.286 73.3453 227.787 72.5608 228.115 71.7006C228.443 70.8404 228.593 69.9224 228.554 69.0028C228.515 68.0831 228.289 67.181 227.889 66.3514C227.489 65.5219 226.924 64.7822 226.228 64.1775L193.509 35.1933L174.373 16.7455C174.812 15.6124 174.89 14.3721 174.598 13.1929C174.305 12.0138 173.656 10.9531 172.738 10.1549C171.82 9.35665 170.678 8.85962 169.467 8.73133C168.256 8.60304 167.034 8.84971 165.969 9.4378C164.903 10.0259 164.045 10.9269 163.51 12.0185C162.976 13.11 162.792 14.3391 162.982 15.5388C163.173 16.7386 163.729 17.8507 164.575 18.7242C165.421 19.5977 166.517 20.1902 167.712 20.4211L186.499 45.3912Z" fill="#A0616A"/>
<path d="M208.216 71.159C208.219 71.5967 208.367 72.0212 208.635 72.3673C208.904 72.7134 209.279 72.9619 209.703 73.0748C210.224 73.2239 210.685 73.5314 211.021 73.9543C211.086 74.0369 211.144 74.1235 211.197 74.2137C211.502 74.7649 211.936 75.2346 212.462 75.5828C212.988 75.931 213.59 76.1474 214.218 76.2137C216.287 76.4022 218.45 77.6543 220.17 78.9779C222.052 80.4264 223.884 81.9983 226.059 82.9553C229.197 84.3358 233.307 84.2557 235.202 80.4418C235.983 78.8072 236.175 76.9541 235.746 75.1948C234.898 71.5045 232.164 68.7469 229.523 66.1336L231.075 66.6588C228.141 63.8548 225.804 60.4885 224.206 56.762C223.692 57.5211 222.385 57.1167 221.976 56.297C221.566 55.4773 221.731 54.5059 221.79 53.592C221.866 52.44 221.644 51.0611 220.242 50.8139C219.905 50.7642 219.561 50.7845 219.232 50.8736C218.904 50.9627 218.597 51.1186 218.331 51.3316C213.229 55.2496 208.994 60.1777 205.893 65.8062C205.205 67.0567 204.557 68.4866 204.927 69.8643C205.298 71.242 207.219 72.1815 208.216 71.159Z" fill="#B78BFF"/>
<path d="M252.101 48.1956C260.256 48.1956 266.867 41.6024 266.867 33.4692C266.867 25.3359 260.256 18.7427 252.101 18.7427C243.946 18.7427 237.335 25.3359 237.335 33.4692C237.335 41.6024 243.946 48.1956 252.101 48.1956Z" fill="#A0616A"/>
<path d="M274.478 47.4795C273.713 45.9332 271.276 46.114 270.035 47.3189C268.8 48.5238 268.35 50.291 267.652 51.864C266.954 53.4438 265.699 55.0436 263.974 55.1105C262.336 55.1708 261.014 53.8454 259.484 53.2697C257.759 52.6204 255.866 52.9618 254.121 53.6312C254.081 53.4638 254.041 53.2965 253.987 53.1358C253.733 52.2724 253.37 51.4447 252.906 50.6725C252.904 51.5272 252.768 52.3764 252.504 53.1894C252.337 53.7043 252.117 54.2001 251.846 54.6687C250.175 55.5121 248.524 56.4158 246.685 56.7171C244.456 57.0919 241.792 56.2619 240.953 54.16C240.335 52.607 240.886 50.7997 241.825 49.4007C242.765 48.0083 244.054 46.8905 245.107 45.5852C246.139 44.3671 246.913 42.9533 247.382 41.429C247.852 39.9048 248.007 38.3015 247.839 36.7158C247.653 35.3255 247.139 33.9992 246.338 32.8459C245.538 31.6926 244.474 30.7454 243.235 30.0822C241.936 30.5493 240.591 30.8726 239.221 31.0461C238.967 30.1827 238.604 29.3549 238.141 28.5828C238.139 29.4375 238.003 30.2867 237.738 31.0997C236.46 31.0809 235.234 30.5977 234.288 29.7408C232.275 27.8397 232.463 24.5196 233.617 22.0027C234.495 20.0962 235.814 18.4249 237.465 17.1262C239.117 15.8275 241.055 14.9387 243.118 14.5328C245.182 14.1269 247.313 14.2156 249.335 14.7916C251.358 15.3676 253.215 16.4144 254.752 17.8458C256.96 14.9675 261.39 14.5123 264.679 16.0653C267.961 17.6249 270.243 20.7309 271.86 23.9774C275.468 31.2633 276.394 39.5816 274.478 47.4795Z" fill="#2F2E41"/>
</g>
<defs>
<clipPath id="clip0_201_1161">
<rect width="381.867" height="320" fill="white"/>
</clipPath>
</defs>
</svg>
