<svg width="400" height="400" viewBox="0 0 400 400" fill="none" xmlns="http://www.w3.org/2000/svg">
  <path
    d="M298.513 244.046C299.148 244.075 299.687 243.584 299.716 242.948C299.732 242.609 299.597 242.28 299.348 242.049L299.269 241.735L299.3 241.66C299.965 240.087 301.779 239.352 303.351 240.018C304.098 240.334 304.691 240.932 305.001 241.681C305.934 243.929 307.121 246.181 307.413 248.557C307.542 249.608 307.488 250.673 307.253 251.705C309.443 246.923 310.58 241.726 310.587 236.466C310.588 235.146 310.515 233.827 310.368 232.516C310.247 231.44 310.079 230.372 309.863 229.312C308.69 223.561 306.169 218.17 302.51 213.582C300.738 212.615 299.306 211.127 298.405 209.32C298.079 208.671 297.848 207.977 297.72 207.261C297.92 207.288 298.123 207.304 298.323 207.317C298.385 207.32 298.451 207.324 298.513 207.327L298.537 207.328C299.166 207.356 299.699 206.869 299.727 206.239C299.739 205.96 299.649 205.686 299.473 205.469C299.387 205.362 299.301 205.256 299.214 205.15C299.083 204.986 298.949 204.825 298.818 204.661C298.803 204.646 298.788 204.629 298.775 204.612C298.625 204.425 298.474 204.242 298.323 204.055C298.598 203.628 298.968 203.27 299.404 203.009C300.914 202.124 302.998 202.737 304.088 204.104C305.123 205.548 305.461 207.379 305.009 209.097C304.635 210.551 304.017 211.93 303.181 213.176C303.263 213.281 303.348 213.382 303.43 213.487C304.927 215.414 306.232 217.483 307.326 219.664C307.06 217.22 307.377 214.748 308.252 212.451C309.138 210.31 310.8 208.508 312.264 206.657C313.345 205.268 315.346 205.02 316.733 206.102C317.399 206.621 317.832 207.384 317.936 208.222L317.945 208.304C317.727 208.427 317.515 208.557 317.306 208.695C316.589 209.174 316.397 210.144 316.876 210.862C317.119 211.226 317.503 211.471 317.936 211.538L317.968 211.543C317.89 212.327 317.753 213.104 317.558 213.867C316.415 218.175 313.529 221.811 309.595 223.9C309.467 223.965 309.343 224.031 309.215 224.093C310.314 227.21 311.003 230.457 311.265 233.752C311.414 235.695 311.405 237.648 311.239 239.591L311.249 239.522C311.668 237.362 312.82 235.413 314.508 234.004C317.017 231.942 320.56 231.182 323.266 229.525C324.099 228.99 325.208 229.232 325.742 230.065C325.971 230.422 326.066 230.849 326.011 231.27L326 231.342C325.596 231.506 325.204 231.696 324.824 231.909C324.606 232.032 324.394 232.162 324.185 232.3C323.468 232.779 323.276 233.75 323.755 234.467C323.998 234.831 324.382 235.077 324.815 235.143L324.847 235.148C324.87 235.151 324.889 235.155 324.912 235.158C324.223 236.805 323.256 238.321 322.052 239.64C319.049 242.866 314.849 244.71 310.443 244.738H310.44C309.848 247.311 308.991 249.817 307.882 252.213H298.742C298.71 252.111 298.68 252.006 298.651 251.905C299.497 251.958 300.346 251.907 301.18 251.754C300.501 250.921 299.823 250.082 299.145 249.249C299.13 249.233 299.116 249.217 299.103 249.2C298.759 248.774 298.412 248.351 298.068 247.924C298.049 246.618 298.199 245.314 298.513 244.046Z"
    fill="#F2F2F2" />
  <path
    d="M270.865 160.131C270.865 165.166 273.382 170.289 278.413 170.289C283.444 170.289 290.385 166.643 288.823 158.828C287.837 153.891 285.005 151.014 279.975 151.014C274.944 151.014 270.865 155.095 270.865 160.131Z"
    fill="#533D78" />
  <path
    d="M291.969 232.069C290.933 230.92 291.025 229.147 292.174 228.111C292.296 228 292.428 227.901 292.568 227.813L290.366 218.099L295.207 219.922L296.556 228.867C297.289 230.24 296.772 231.948 295.4 232.681C294.253 233.295 292.834 233.042 291.969 232.069Z"
    fill="#A0616A" />
  <path
    d="M281.694 197.638L285.073 197.982C285.073 197.982 284.189 202.991 285.571 204.119C286.953 205.248 286.396 205.242 286.388 206.079C286.473 207.293 287.07 208.413 288.03 209.161C289.136 210.008 291.436 225.091 291.436 225.091L296.449 225.139C296.299 223.842 296.312 222.531 296.486 221.237C296.783 219.288 298.286 214.38 297.737 213.538C297.188 212.697 297.477 211.149 297.493 209.477C297.509 207.804 295.118 209.652 295.145 206.865C295.172 204.078 292.106 186.587 292.408 184.081C292.711 181.575 289.669 179.316 289.669 179.316L286.884 179.289L281.694 197.638Z"
    fill="#E6E6E6" />
  <path
    d="M245.827 174.115C245.509 175.547 246.41 176.966 247.841 177.284C247.993 177.318 248.149 177.339 248.305 177.345L251.015 186.385L254.158 182.622L251.102 174.615C251.067 173.14 249.845 171.974 248.372 172.009C247.139 172.038 246.087 172.909 245.827 174.115Z"
    fill="#A0616A" />
  <path
    d="M274.442 177.059C274.442 177.059 267.89 174.6 264.337 188.065L259.622 192.953L255.66 185.789L256.183 184.089L253.122 177.141L247.872 180.157L249.164 184.927L248.946 187.284L250.2 188.751L252.254 196.331L253.539 198.807C253.539 198.807 255.159 201.977 257.987 202.5C258.74 202.641 259.512 202.663 260.273 202.565C262.081 202.281 263.758 201.444 265.071 200.167C268.568 197.046 271.874 193.719 274.974 190.203L274.442 177.059Z"
    fill="#E6E6E6" />
  <path
    d="M283.231 199.607L283.694 201.817L284.088 209.971L268.255 207.826L267.039 198.384L268.719 195.62L283.231 199.607Z"
    fill="#A0616A" />
  <path
    d="M278.095 170.157C282.233 170.157 285.588 166.8 285.588 162.658C285.588 158.516 282.233 155.158 278.095 155.158C273.956 155.158 270.601 158.516 270.601 162.658C270.601 166.8 273.956 170.157 278.095 170.157Z"
    fill="#A0616A" />
  <path
    d="M290.65 180.195C289.413 177.276 286.854 175.126 283.767 174.413L283.739 174.408L282.255 172.409L276.235 173.013L275.135 175.271L272.281 176.971H272.275L272.269 176.977L270.774 177.869L265.815 183.679L265.809 183.685C264.338 184.668 263.339 186.218 263.051 187.965C262.976 188.464 262.951 188.969 262.977 189.473C263.141 192.561 265.07 195.311 265.336 195.678L265.984 199.331L266.114 200.082L267.282 200.252L283.733 202.606L284.19 202.674L284.326 202.691L284.8 201.466V201.454L289.386 189.444L291.446 184.086C291.451 182.748 291.18 181.423 290.65 180.195Z"
    fill="#E6E6E6" />
  <path
    d="M285.937 164.624C285.869 164.613 285.801 164.599 285.733 164.588C284.564 164.38 283.395 164.177 282.23 163.965L282.123 161.322L280.711 163.69C277.49 164.76 274.477 164.155 271.642 162.821C270.707 162.376 269.8 161.876 268.926 161.322C268.316 157.598 269.854 154.663 273.805 154.288C273.928 154.276 274.016 154.174 274.123 154.12L274.127 154.116C274.309 154.031 274.495 153.948 274.681 153.873C277.651 152.711 281.024 153.366 283.345 155.555C285.69 157.942 286.666 161.356 285.937 164.624Z"
    fill="#533D78" />
  <path
    d="M293.319 225.108C292.987 222.892 292.443 220.714 291.694 218.603V218.597C291.067 216.812 290.285 215.085 289.358 213.436C289.355 213.436 289.353 213.434 289.352 213.431C288.018 210.945 286.277 208.7 284.202 206.79L283.982 206.559H283.925L268.038 206.169H267.874L267.694 206.164C267.694 206.164 267.626 206.361 267.496 206.734C267.491 206.757 267.484 206.78 267.474 206.802C267.429 206.948 267.372 207.118 267.305 207.304C267.265 207.428 267.22 207.558 267.175 207.699C267.124 207.852 267.068 208.01 267.011 208.179C266.571 209.495 265.928 211.404 265.138 213.769C265.02 214.131 264.896 214.504 264.766 214.893C261.753 223.967 256.907 238.795 252.676 252.849H267.683C269.138 248.637 270.684 242.629 270.684 242.629C271.288 241.912 271.254 239.964 271.254 239.964L275.97 235.006L279.367 252.849H293.618L293.725 232.99V232.821C293.836 230.243 293.7 227.66 293.319 225.108Z"
    fill="#CCCCCC" />
  <path
    d="M283.066 153.93V153.936C283.065 154.329 283.115 154.72 283.215 155.1C283.23 155.166 283.249 155.236 283.272 155.302V155.306C283.702 156.68 284.751 157.773 286.106 158.26C286.204 158.298 286.305 158.329 286.407 158.358C286.62 158.42 286.838 158.464 287.059 158.491C287.257 158.519 287.457 158.533 287.658 158.532C287.814 158.533 287.971 158.525 288.126 158.51C288.491 158.473 288.849 158.391 289.194 158.266C289.248 158.25 289.3 158.231 289.352 158.209C289.378 158.2 289.403 158.189 289.428 158.177C291.77 157.196 292.873 154.501 291.893 152.157C291.864 152.087 291.833 152.018 291.8 151.949L291.797 151.946C291.572 151.474 291.266 151.045 290.894 150.678C290.065 149.851 289.699 147.778 288.438 147.778C288.378 147.777 288.318 147.779 288.258 147.784C287.412 147.812 285.849 149.638 285.184 150.069C284.69 150.382 284.262 150.788 283.924 151.264C283.571 151.755 283.319 152.311 283.183 152.9C283.105 153.238 283.066 153.583 283.066 153.93Z"
    fill="#533D78" />
  <path
    d="M288.676 152.33C289.389 153.161 290.506 153.484 291.513 153.916C295.122 155.501 297.717 158.766 298.447 162.642C298.725 164.197 298.689 165.807 299.128 167.323C299.566 168.839 300.648 170.327 302.202 170.59C303.254 170.769 304.308 170.363 305.297 169.962C305.841 169.743 306.385 169.523 306.928 169.303C306.361 167.878 305.795 166.453 305.229 165.028C306.138 166.373 307.195 167.611 308.381 168.719C310.33 167.933 312.281 167.146 314.234 166.359C309.43 166.378 310.249 161.71 309.175 157.026C308.584 154.453 303.553 152.71 302.566 150.262C301.026 146.423 296.668 144.561 292.832 146.103C291.179 146.767 289.817 148 288.991 149.579C288.005 149.972 287.976 151.509 288.676 152.33Z"
    fill="#533D78" />
  <path
    d="M268.27 207.31C266.026 207.896 264.21 209.542 263.407 211.719C263.122 212.335 263.13 213.045 263.427 213.654C263.659 214.089 264.177 214.285 264.639 214.114C265.103 213.864 265.473 213.469 265.693 212.99C266.017 212.375 266.294 211.737 266.525 211.082C266.902 210.092 267.706 208.441 266.558 207.667C265.592 207.017 264.314 207.27 263.227 207.225C262.053 207.177 260.748 206.727 260.331 205.509C259.925 204.324 260.876 203.21 261.901 202.76C263.153 202.24 264.581 202.376 265.712 203.123C266.813 203.887 267.599 205.025 267.924 206.326C267.974 206.536 267.845 206.747 267.635 206.797C267.435 206.845 267.232 206.73 267.171 206.533C266.883 205.327 266.124 204.286 265.063 203.644C264.009 203.035 262.7 203.086 261.697 203.775C261.171 204.103 260.926 204.741 261.098 205.337C261.363 205.866 261.861 206.24 262.442 206.345C263.681 206.645 264.977 206.257 266.212 206.653C267.361 206.948 268.094 208.074 267.898 209.245C267.769 209.948 267.561 210.634 267.278 211.289C267.037 211.963 266.755 212.622 266.434 213.262C265.944 214.189 265.06 215.193 263.893 214.921C262.564 214.611 262.248 213.058 262.533 211.915C263.304 209.279 265.405 207.243 268.063 206.557C268.272 206.507 268.483 206.637 268.533 206.847C268.581 207.046 268.466 207.249 268.27 207.31Z"
    fill="#CCCCCC" />
  <path
    d="M326.966 253.414H234.441C232.261 253.412 230.495 251.643 230.492 249.461V123.544C230.495 121.362 232.261 119.594 234.441 119.591H326.966C329.146 119.594 330.913 121.362 330.915 123.544V249.461C330.913 251.643 329.146 253.412 326.966 253.414ZM234.441 120.721C232.884 120.722 231.622 121.985 231.62 123.544V249.461C231.622 251.02 232.884 252.283 234.441 252.285H326.966C328.523 252.283 329.785 251.02 329.787 249.461V123.544C329.785 121.985 328.523 120.722 326.966 120.721H234.441Z"
    fill="#FFFAEE" />
  <path
    d="M341.67 73.5592H79.1633C78.6004 73.5472 78.1538 73.0807 78.1658 72.5173C78.1775 71.9709 78.6173 71.5307 79.1633 71.519H341.67C342.233 71.5311 342.679 71.9976 342.667 72.5609C342.656 73.1074 342.216 73.5475 341.67 73.5592Z"
    fill="#CACACA" />
  <path
    d="M392.666 194.69H362.764C358.714 194.69 355.43 191.403 355.43 187.349C355.43 183.295 358.714 180.009 362.764 180.009H392.666C396.716 180.009 400 183.295 400 187.349C400 191.403 396.716 194.69 392.666 194.69Z"
    fill="#FFA217" />
  <path
    d="M178.268 225.412C177.633 225.441 177.094 224.95 177.065 224.314C177.05 223.975 177.184 223.646 177.434 223.415L177.512 223.102L177.481 223.026C176.816 221.453 175.002 220.718 173.43 221.384C172.683 221.7 172.09 222.298 171.78 223.048C170.847 225.295 169.66 227.547 169.368 229.923C169.239 230.974 169.293 232.039 169.528 233.071C167.338 228.289 166.201 223.092 166.194 217.832C166.193 216.512 166.266 215.193 166.413 213.882C166.534 212.806 166.702 211.739 166.918 210.679C168.091 204.927 170.612 199.536 174.272 194.948C176.043 193.981 177.475 192.494 178.376 190.686C178.702 190.037 178.933 189.343 179.061 188.628C178.861 188.654 178.658 188.67 178.458 188.683C178.396 188.687 178.33 188.69 178.268 188.693L178.244 188.694C177.615 188.722 177.082 188.235 177.054 187.605C177.042 187.326 177.132 187.052 177.308 186.835C177.394 186.729 177.481 186.622 177.567 186.516C177.698 186.352 177.832 186.192 177.963 186.028C177.978 186.012 177.993 185.996 178.006 185.978C178.157 185.792 178.307 185.608 178.458 185.421C178.183 184.994 177.813 184.636 177.377 184.375C175.867 183.49 173.783 184.103 172.693 185.47C171.658 186.914 171.32 188.745 171.772 190.463C172.146 191.917 172.764 193.296 173.6 194.542C173.518 194.647 173.433 194.748 173.351 194.853C171.854 196.78 170.549 198.849 169.456 201.03C169.722 198.586 169.404 196.114 168.529 193.817C167.643 191.677 165.981 189.874 164.517 188.023C163.436 186.635 161.435 186.386 160.048 187.468C159.382 187.987 158.95 188.75 158.845 189.588L158.836 189.67C159.054 189.793 159.267 189.923 159.475 190.061C160.192 190.54 160.385 191.511 159.906 192.228C159.662 192.592 159.278 192.838 158.845 192.904L158.814 192.909C158.891 193.693 159.028 194.47 159.223 195.234C160.366 199.542 163.252 203.177 167.186 205.266C167.314 205.331 167.438 205.397 167.566 205.459C166.467 208.576 165.778 211.823 165.516 215.118C165.367 217.062 165.376 219.014 165.542 220.957L165.532 220.888C165.113 218.728 163.961 216.779 162.273 215.37C159.764 213.308 156.221 212.549 153.515 210.891C152.682 210.356 151.574 210.598 151.039 211.431C150.81 211.788 150.715 212.215 150.77 212.636L150.781 212.708C151.185 212.872 151.578 213.062 151.957 213.275C152.175 213.398 152.388 213.528 152.596 213.666C153.313 214.145 153.506 215.116 153.027 215.833C152.783 216.197 152.399 216.443 151.966 216.509L151.934 216.514C151.912 216.518 151.892 216.521 151.869 216.524C152.558 218.171 153.526 219.687 154.729 221.006C157.732 224.232 161.932 226.076 166.338 226.104H166.341C166.933 228.678 167.79 231.183 168.899 233.579H178.039C178.071 233.477 178.101 233.372 178.13 233.271C177.284 233.324 176.435 233.273 175.602 233.12C176.28 232.287 176.958 231.448 177.636 230.615C177.651 230.6 177.665 230.583 177.678 230.566C178.022 230.14 178.37 229.717 178.714 229.291C178.732 227.984 178.582 226.68 178.268 225.412Z"
    fill="#F2F2F2" />
  <g opacity="0.38">
    <path
      d="M160.914 212.123C159.502 210.966 159.295 208.883 160.451 207.47C160.574 207.319 160.71 207.18 160.858 207.053L153.389 187.511L159.358 188.776L165.696 207.573C166.794 209.044 166.494 211.127 165.024 212.227C163.795 213.147 162.096 213.104 160.914 212.123Z"
      fill="#FFB8B8" />
    <path
      d="M163.987 190.72L157.285 162.804L154.402 154.684C154.399 154.681 154.397 154.677 154.396 154.673C153.927 153.346 152.945 152.264 151.671 151.669C150.397 151.058 148.93 150.989 147.604 151.477C147.49 151.516 147.379 151.561 147.271 151.612C147.039 151.718 146.815 151.839 146.599 151.974C145.355 152.758 144.491 154.024 144.213 155.469L143.705 158.134L143.491 159.269L151.406 186.959V186.971L154.159 196.615L155.434 201.064V201.07L156.912 206.248L156.946 206.355L160.495 206.118H160.501L161.037 206.079L165.099 205.808L165.685 205.768L163.987 190.72Z"
      fill="#533D78" />
    <path
      d="M136.777 144.111L151.706 174.328L161.15 206.459C141.253 210.342 116.287 218.649 114.49 206.735C115.597 173.519 119.086 162.924 126.287 148.524L136.777 144.111Z"
      fill="#533D78" />
    <path
      d="M156.738 233.65H144.478L139.508 216.841L136.01 233.436C135.998 233.509 135.993 233.577 135.982 233.65H122.915C123.338 228.456 124.111 219.421 124.478 218.139C124.997 216.321 124.478 216.321 123.44 215.282C123.209 215.051 123.13 214.125 123.152 212.832C123.214 208.377 124.427 199.551 124.427 199.551L125.866 196.886L126.362 195.96L151.987 195.056L152.207 195.051L152.681 197.117L153.262 199.664L154.283 204.13L155.226 207.693L155.276 207.874V208.93C155.116 209.298 155.043 209.698 155.062 210.099C155.062 210.46 155.874 221.719 156.738 233.65Z"
      fill="#533D78" />
    <path
      d="M135.027 148.592L136.787 144.379L142.232 144.475L147.91 152.513L153.869 177.596C153.869 177.596 156.009 195.92 153.869 196.887C151.728 197.854 125.81 197.339 125.81 197.339C127.01 187.444 127.904 177.378 128.847 171.364C131.962 151.49 133.432 155.673 135.027 148.592Z"
      fill="#FFA217" />
    <path
      d="M142.232 144.475C142.232 144.475 153.961 151.261 154.42 154.803C154.879 158.345 156.415 201.701 156.415 201.701L152.267 199.019L151.133 183.217C151.924 169.176 149.994 158.71 146.071 150.865L142.232 144.475Z"
      fill="#533D78" />
    <path
      d="M147.354 135.782C148.061 131.42 145.101 127.311 140.743 126.603C136.385 125.895 132.279 128.857 131.572 133.219C130.865 137.58 133.824 141.69 138.182 142.398C142.54 143.106 146.646 140.144 147.354 135.782Z"
      fill="#FFB8B8" />
    <path
      d="M129.613 134.025C129.97 135.646 130.614 137.19 131.514 138.584C131.753 139.059 132.11 139.465 132.551 139.763C133.012 140.058 133.618 139.983 133.992 139.582L134.186 139.424C133.805 139.189 133.464 138.893 133.178 138.548C132.89 138.197 132.79 137.729 132.908 137.29C133.051 136.847 133.519 136.598 133.966 136.724C134.435 136.908 134.719 137.586 135.209 137.481C135.605 137.395 135.688 136.872 135.688 136.461C135.673 134.313 136.71 131.261 137.513 131.354C138.325 131.399 139.137 131.29 139.908 131.034C140.68 130.777 141.495 130.673 142.306 130.727C142.364 130.735 142.422 130.745 142.483 130.756C142.613 130.348 142.792 129.957 143.016 129.592C142.991 130.033 143.012 130.475 143.081 130.911C143.726 131.178 144.394 131.389 145.076 131.542C145.817 131.646 147.449 133.866 147.524 133.639C147.654 133.231 147.833 132.84 148.057 132.475C148.032 132.916 148.054 133.358 148.122 133.794C148.126 133.812 148.126 133.827 148.129 133.845C148.489 133.365 148.709 132.782 148.587 133.229C149.793 130.497 149.325 128.54 147.427 126.237C147.057 125.741 146.568 125.348 146.005 125.094C145.431 124.842 144.768 124.908 144.255 125.267C142.678 123.821 140.442 123.344 138.414 124.02C136.437 124.709 134.914 125.112 134.611 127.188C132.928 127.004 131.288 127.803 130.394 129.242C129.542 130.682 129.263 132.389 129.613 134.025Z"
      fill="#533D78" />
    <path
      d="M107.212 210.149C106.534 208.454 107.356 206.529 109.05 205.85C109.231 205.777 109.417 205.721 109.608 205.681L112.49 184.958L117.108 188.949L113.594 208.474C113.847 210.292 112.579 211.972 110.762 212.225C109.242 212.437 107.774 211.579 107.212 210.149Z"
      fill="#FFB8B8" />
    <path
      d="M132.653 154.831L132.433 152.821C132.225 150.964 131.061 149.353 129.364 148.575C128.719 148.275 128.02 148.112 127.31 148.095H127.305C125.167 148.045 123.209 149.282 122.334 151.234L118.814 159.111L109.928 186.412L107.056 201.262L110.159 201.72L114.656 202.38L114.69 202.386L115.722 202.539L130.148 163.894L130.154 163.882L132.85 156.661L132.653 154.831Z"
      fill="#533D78" />
  </g>
  <path
    d="M186.486 234.216H93.9618C91.7817 234.213 90.0151 232.445 90.0125 230.263V104.346C90.015 102.164 91.7817 100.396 93.9618 100.393H186.486C188.667 100.396 190.433 102.164 190.436 104.346V230.263C190.433 232.445 188.666 234.213 186.486 234.216ZM93.9618 101.522C92.4046 101.524 91.1427 102.787 91.1409 104.346V230.263C91.1427 231.822 92.4046 233.085 93.9618 233.087H186.486C188.044 233.085 189.306 231.822 189.307 230.263V104.346C189.306 102.787 188.044 101.524 186.486 101.522H93.9618Z"
    fill="#E6E6E6" />
  <path
    d="M37.2355 194.69H7.33427C3.28367 194.69 0 191.403 0 187.349C0 183.295 3.28367 180.009 7.33427 180.009H37.2355C41.2861 180.009 44.5698 183.295 44.5698 187.349C44.5698 191.403 41.2861 194.69 37.2355 194.69Z"
    fill="#E6E6E6" />
  <path
    d="M51.9041 223.487H22.0028C17.9522 223.487 14.6685 220.201 14.6685 216.147C14.6685 212.093 17.9522 208.806 22.0028 208.806H51.9041C55.9547 208.806 59.2384 212.093 59.2384 216.147C59.2384 220.201 55.9547 223.487 51.9041 223.487Z"
    fill="#E6E6E6" />
  <path d="M67.72 218.102L67.7037 219.231L125.486 220.066L125.503 218.937L67.72 218.102Z"
    fill="#E6E6E6" />
  <path
    d="M127.919 222.086C126.839 222.087 125.853 221.472 125.378 220.501C124.696 219.099 125.277 217.409 126.678 216.726C128.078 216.042 129.767 216.625 130.449 218.026C131.132 219.427 130.55 221.118 129.15 221.801C128.766 221.988 128.345 222.086 127.919 222.086ZM127.913 217.569C126.978 217.57 126.221 218.329 126.222 219.265C126.222 219.521 126.28 219.775 126.393 220.005C126.803 220.845 127.816 221.193 128.655 220.782C129.494 220.371 129.842 219.357 129.431 218.517C129.148 217.937 128.558 217.569 127.913 217.569Z"
    fill="#E6E6E6" />
  <path d="M55.3082 188.175L55.2919 189.305L113.074 190.14L113.091 189.011L55.3082 188.175Z"
    fill="#E6E6E6" />
  <path
    d="M115.507 192.16C114.427 192.161 113.441 191.545 112.967 190.574C112.283 189.173 112.864 187.482 114.265 186.798C115.666 186.113 117.355 186.695 118.039 188.097C118.722 189.499 118.141 191.19 116.74 191.874C116.356 192.062 115.934 192.159 115.507 192.16ZM113.981 190.079C114.391 190.92 115.404 191.269 116.244 190.859C117.083 190.448 117.432 189.435 117.022 188.594C116.613 187.753 115.6 187.405 114.76 187.815C114.357 188.012 114.048 188.361 113.902 188.785C113.756 189.21 113.784 189.675 113.981 190.079Z"
    fill="#E6E6E6" />
  <path
    d="M59.8026 166.457H29.9013C25.8507 166.457 22.567 163.171 22.567 159.117C22.567 155.063 25.8507 151.776 29.9013 151.776H59.8026C63.8532 151.776 67.1368 155.063 67.1368 159.117C67.1368 163.171 63.8532 166.457 59.8026 166.457Z"
    fill="#E6E6E6" />
  <path d="M77.8752 159.943L77.8589 161.072L135.641 161.908L135.658 160.778L77.8752 159.943Z"
    fill="#E6E6E6" />
  <path
    d="M138.074 163.928C136.994 163.928 136.008 163.313 135.534 162.342C134.85 160.94 135.431 159.249 136.832 158.565C138.233 157.881 139.922 158.463 140.606 159.865C141.289 161.266 140.708 162.957 139.307 163.641C138.923 163.829 138.501 163.927 138.074 163.928ZM136.548 161.847C136.958 162.687 137.971 163.036 138.811 162.626C139.65 162.216 139.999 161.202 139.589 160.362C139.179 159.521 138.166 159.172 137.327 159.582C136.923 159.779 136.615 160.128 136.469 160.553C136.323 160.977 136.351 161.443 136.548 161.847Z"
    fill="#E6E6E6" />
  <path d="M290.499 184.326L290.482 185.456L348.265 186.291L348.281 185.162L290.499 184.326Z"
    fill="#FFFAEE" />
  <path
    d="M288.073 187.954C286.513 187.958 285.244 186.695 285.241 185.133C285.237 183.571 286.5 182.301 288.06 182.298C289.621 182.294 290.889 183.558 290.893 185.12C290.895 186.203 290.279 187.192 289.307 187.667C288.923 187.855 288.501 187.953 288.073 187.954ZM288.069 183.435C287.134 183.435 286.376 184.194 286.375 185.13C286.375 186.066 287.134 186.825 288.069 186.825C289.005 186.825 289.763 186.066 289.763 185.13C289.763 184.873 289.705 184.619 289.592 184.387C289.308 183.805 288.717 183.435 288.069 183.435Z"
    fill="#FFFAEE" />
  <path
    d="M392.666 252.849H362.764C358.714 252.849 355.43 249.562 355.43 245.508C355.43 241.454 358.714 238.168 362.764 238.168H392.666C396.716 238.168 400 241.454 400 245.508C400 249.562 396.716 252.849 392.666 252.849Z"
    fill="#FFA217" />
  <path d="M290.499 242.486L290.482 243.615L348.265 244.451L348.281 243.321L290.499 242.486Z"
    fill="#FFFAEE" />
  <path
    d="M288.073 246.114C286.515 246.115 285.25 244.852 285.249 243.293C285.247 241.733 286.509 240.467 288.067 240.466C289.147 240.465 290.133 241.081 290.606 242.052C291.288 243.455 290.705 245.146 289.303 245.829C288.92 246.016 288.499 246.113 288.073 246.114ZM288.069 241.594C287.134 241.594 286.375 242.353 286.375 243.289C286.375 244.226 287.133 244.985 288.069 244.985C289.004 244.985 289.763 244.226 289.763 243.29C289.763 243.032 289.704 242.778 289.592 242.547C289.308 241.965 288.717 241.595 288.069 241.594Z"
    fill="#FFFAEE" />
  <path
    d="M213.805 252.781C215.235 251.632 215.464 249.541 214.316 248.111C214.205 247.972 214.083 247.843 213.951 247.724L219.325 232.065L215.362 229.512L209.116 248.157C207.994 249.605 208.257 251.689 209.703 252.812C210.914 253.751 212.609 253.738 213.805 252.781Z"
    fill="#FFB6B6" />
  <path
    d="M218.391 209.575C217.442 213.594 216.026 217.103 216.217 218.789C216.407 220.47 214.355 222.085 215.007 223.414C215.658 224.746 213.654 224.888 214.196 227.032C214.74 229.181 215.093 229.64 214.634 229.994C214.172 230.346 211.729 238.545 211.729 238.545L213.162 239.071L217.343 240.597L227.167 224.424L227.138 204.573L224.698 204.495C224.112 204.714 223.464 204.978 222.817 205.296C220.841 206.251 218.842 207.662 218.391 209.575Z"
    fill="#FFA217" />
  <path d="M254.569 335.537H259.678L262.109 315.814H254.568L254.569 335.537Z" fill="#FFB6B6" />
  <path
    d="M261.378 335.997V332.531L260.035 332.613L254.568 332.937L253.302 333.015L252.335 344.625L252.283 345.247H255.911L256.027 344.629L256.554 341.819L257.915 344.629L258.213 345.247H267.83C269.022 345.239 269.985 344.274 269.99 343.082C270.396 341.184 262.397 337.082 261.378 335.997Z"
    fill="#533D78" />
  <path d="M194.714 329.971L199.158 332.494L210.997 316.541L204.438 312.817L194.714 329.971Z"
    fill="#FFB6B6" />
  <path
    d="M200.412 333.733L202.118 330.72L200.917 330.128L195.998 327.712L194.858 327.15L189.257 335.358L187.94 337.286L189.429 338.133L191.092 339.079L193.346 336.417L193.096 340.216L200.952 344.681H200.956L201.461 344.966C202.5 345.554 203.818 345.188 204.407 344.15C205.694 342.697 200.762 335.185 200.412 333.733Z"
    fill="#533D78" />
  <path
    d="M229.215 238.722C222.369 243.262 215.591 286.886 217.37 286.173L201.233 316.272L209.481 321.853L239.304 274.094L249.217 295.222L253.311 327.651L263.58 326.917C260.912 290.383 254.249 251.851 248.728 236.946L229.215 238.722Z"
    fill="#533D78" />
  <path
    d="M224.017 241.961L223.942 242.242C231.18 246.272 250.991 241.604 250.991 241.604L247.798 231.306L252.109 208.43C252.085 204.738 249.075 201.763 245.386 201.786C245.234 201.787 245.083 201.793 244.931 201.804L239.73 197.948L232.326 198.204L227.373 203.679L224.414 204.737L222.115 205.558C221.65 205.977 221.143 206.46 220.657 206.992L224.294 228.653L225.84 235.129L224.017 241.961Z"
    fill="#FFA217" />
  <path
    d="M236.035 197.09C241.282 197.09 245.536 192.833 245.536 187.581C245.536 182.33 241.282 178.073 236.035 178.073C230.788 178.073 226.535 182.33 226.535 187.581C226.535 192.833 230.788 197.09 236.035 197.09Z"
    fill="#FFB6B6" />
  <path
    d="M223.544 184.268C223.572 184.279 223.597 184.29 223.625 184.301C223.679 184.325 223.735 184.345 223.792 184.361C224.154 184.495 224.532 184.581 224.916 184.62C225.08 184.638 225.244 184.646 225.409 184.646C225.62 184.647 225.831 184.633 226.04 184.605C226.273 184.576 226.504 184.529 226.729 184.465C226.836 184.436 226.942 184.402 227.045 184.362C228.475 183.854 229.584 182.704 230.04 181.256V181.252C230.064 181.183 230.085 181.112 230.101 181.04C230.207 180.64 230.26 180.228 230.26 179.815V179.808C230.263 178.8 229.949 177.816 229.363 176.997C229.009 176.495 228.601 176.411 228.83 175.838C229.561 174.008 226.571 172.513 224.806 173.317C224.742 173.311 224.678 173.309 224.614 173.31C223.426 173.307 222.985 175.063 222.276 176.052L222.297 176.059C222.772 176.225 223.023 176.746 222.856 177.222C222.763 177.488 222.552 177.696 222.285 177.786C221.814 177.939 221.337 178.075 220.855 178.193C219.267 180.07 221.088 185.563 223.544 184.268Z"
    fill="#533D78" />
  <path
    d="M224.418 189.302C224.87 191.336 225.953 193.175 227.513 194.555C229.12 195.855 236.68 198.935 237.318 196.298C236.891 198.14 237.148 198.844 237.835 199.502C237.952 199.343 238.077 199.191 238.205 199.042C238.677 198.498 239.243 198.043 239.876 197.7C239.892 198.813 239.812 199.925 239.637 201.023C239.92 201.284 240.189 201.56 240.444 201.849C241.666 198.202 244.346 193.833 242.406 190.512C241.636 189.194 242.278 189.014 242.96 188.863C244.151 188.599 244.807 183.708 245.091 182.519C245.442 181.029 245.581 179.314 244.658 178.09C243.736 176.866 241.401 176.814 240.929 178.272L239.946 176.935C238.676 174.137 235.304 174.697 232.256 175.058C229.164 175.527 226.503 177.492 225.143 180.31C223.834 183.124 223.577 186.315 224.418 189.302Z"
    fill="#533D78" />
  <path
    d="M229.224 176.522C229.356 179.971 227.419 183.166 224.301 184.64C223.682 184.921 223.142 184.002 223.766 183.719C226.553 182.432 228.288 179.589 228.159 176.52C228.124 175.834 229.188 175.839 229.224 176.522Z"
    fill="#FFA217" />
  <path
    d="M272.133 181.783C270.366 182.273 269.332 184.104 269.822 185.872C269.87 186.043 269.931 186.21 270.005 186.372L258.893 198.638L261.528 202.548L274.619 187.883C276.22 186.996 276.8 184.978 275.914 183.375C275.172 182.033 273.609 181.375 272.133 181.783Z"
    fill="#FFB6B6" />
  <path
    d="M240.547 221.576C240.547 221.576 248.428 222.992 250.884 219.672C253.34 216.351 256.026 213.688 256.514 212.065C257.003 210.442 259.524 209.772 259.45 208.291C259.375 206.811 261.275 207.472 261.621 205.286C261.967 203.099 261.824 202.536 262.387 202.393C262.951 202.251 268.426 195.683 268.426 195.683L264.078 191.58L248.675 202.56L240.547 221.576Z"
    fill="#FFA217" />
  <path
    d="M181.274 341.106C175.089 340.369 169.568 336.878 166.247 331.605C164.115 328.144 163.015 324.034 161.951 320.06C161.641 318.903 161.321 317.707 160.982 316.554C160.198 313.976 161.059 311.18 163.158 309.492C165.187 307.79 168.046 307.495 170.379 308.746L170.628 308.879L171.065 318.692C171.711 317.377 173.13 314.407 174.253 311.442L174.348 311.193L174.563 311.349C176.822 312.974 178.869 314.877 180.653 317.013C187.03 324.772 189.674 334.946 187.883 344.832L187.828 345.123L181.274 341.106Z"
    fill="#F2F2F2" />
  <path
    d="M141.291 345.024C141.29 345.394 141.589 345.694 141.958 345.695H305.737C306.107 345.695 306.408 345.395 306.408 345.024C306.408 344.652 306.107 344.352 305.737 344.352H141.962C141.593 344.35 141.292 344.65 141.291 345.02V345.024Z"
    fill="#CCCCCC" />
  <path
    d="M92.291 64.0676C94.9259 64.0676 97.062 61.8821 97.062 59.1862C97.062 56.4902 94.9259 54.3047 92.291 54.3047C89.656 54.3047 87.52 56.4902 87.52 59.1862C87.52 61.8821 89.656 64.0676 92.291 64.0676Z"
    fill="#FFFAEE" />
  <path
    d="M108.773 64.0676C111.408 64.0676 113.544 61.8821 113.544 59.1862C113.544 56.4902 111.408 54.3047 108.773 54.3047C106.138 54.3047 104.002 56.4902 104.002 59.1862C104.002 61.8821 106.138 64.0676 108.773 64.0676Z"
    fill="#FFFAEE" />
  <path
    d="M125.254 64.0676C127.889 64.0676 130.025 61.8821 130.025 59.1862C130.025 56.4902 127.889 54.3047 125.254 54.3047C122.619 54.3047 120.483 56.4902 120.483 59.1862C120.483 61.8821 122.619 64.0676 125.254 64.0676Z"
    fill="#FFFAEE" />
  <path
    d="M144.048 63.0441C143.901 63.0441 143.755 62.9873 143.644 62.8743L140.425 59.5807C140.211 59.3612 140.211 59.0105 140.425 58.791L143.644 55.4977C143.863 55.2749 144.22 55.2713 144.442 55.4889C144.665 55.707 144.669 56.0645 144.451 56.2873L141.618 59.1859L144.451 62.0847C144.669 62.3074 144.665 62.665 144.442 62.8831C144.333 62.9906 144.19 63.0441 144.048 63.0441Z"
    fill="#FFFAEE" />
  <path
    d="M149.457 63.0445C149.315 63.0445 149.172 62.9911 149.063 62.8835C148.84 62.6654 148.836 62.3081 149.054 62.0851L151.887 59.1863L149.054 56.2877C148.836 56.065 148.84 55.7074 149.063 55.4893C149.285 55.2709 149.643 55.2751 149.861 55.4981L153.08 58.7914C153.294 59.0109 153.294 59.3616 153.08 59.5811L149.861 62.8747C149.75 62.9878 149.604 63.0445 149.457 63.0445Z"
    fill="#FFFAEE" />
  <path
    d="M317.869 54.8696H311.883C311.2 54.8696 310.648 55.423 310.648 56.1062V62.1028C310.648 62.7861 311.2 63.3394 311.883 63.3394H317.869C318.552 63.3394 319.11 62.7861 319.11 62.1028V56.1062C319.11 55.423 318.552 54.8696 317.869 54.8696Z"
    fill="#FFFAEE" />
  <path
    d="M303.2 54.8696H297.215C296.532 54.8696 295.979 55.423 295.979 56.1062V62.1028C295.979 62.7861 296.532 63.3394 297.215 63.3394H303.2C303.883 63.3394 304.442 62.7861 304.442 62.1028V56.1062C304.442 55.423 303.883 54.8696 303.2 54.8696Z"
    fill="#FFFAEE" />
  <path
    d="M331.691 55.1523H325.705C325.023 55.1523 324.47 55.7057 324.47 56.3889V62.3855C324.47 63.0688 325.023 63.6221 325.705 63.6221H331.691C332.374 63.6221 332.933 63.0688 332.933 62.3855V56.3889C332.933 55.7057 332.374 55.1523 331.691 55.1523Z"
    fill="#FFFAEE" />
  <path
    d="M241.468 57.4336H193.62C192.785 57.4336 192.113 58.1112 192.113 58.9412C192.113 59.7713 192.785 60.4489 193.62 60.4489H241.468C242.297 60.4489 242.974 59.7713 242.974 58.9412C242.974 58.1112 242.297 57.4336 241.468 57.4336Z"
    fill="#FFFAEE" />
</svg>