<svg width="400" height="400" viewBox="0 0 400 400" fill="none" xmlns="http://www.w3.org/2000/svg">
  <g clip-path="url(#clip0_209_2112)">
    <path
      d="M24.1936 24.9058C23.7963 24.9062 23.4154 25.0642 23.1345 25.3452C22.8535 25.6261 22.6955 26.007 22.6951 26.4043V77.5173C22.6955 77.9146 22.8535 78.2956 23.1345 78.5765C23.4154 78.8574 23.7963 79.0155 24.1936 79.0159H198.481C198.878 79.0155 199.259 78.8574 199.54 78.5765C199.821 78.2956 199.979 77.9146 199.979 77.5173V26.4043C199.979 26.007 199.821 25.6261 199.54 25.3452C199.259 25.0642 198.878 24.9062 198.481 24.9058H24.1936Z"
      fill="#E6E6E6" />
    <path d="M26.45 75.2609H196.223V28.6606H26.45V75.2609Z" fill="white" />
    <path
      d="M174.794 65.5928C174.468 65.5928 174.145 65.657 173.844 65.7817C173.543 65.9065 173.269 66.0894 173.038 66.3199C172.808 66.5504 172.625 66.8241 172.5 67.1253C172.375 67.4265 172.311 67.7493 172.311 68.0753C172.311 68.4013 172.375 68.7241 172.5 69.0253C172.625 69.3265 172.808 69.6002 173.038 69.8307C173.269 70.0612 173.543 70.2441 173.844 70.3688C174.145 70.4936 174.468 70.5578 174.794 70.5578H184.723C185.049 70.5578 185.372 70.4936 185.673 70.3688C185.974 70.2441 186.248 70.0612 186.479 69.8307C186.709 69.6002 186.892 69.3265 187.017 69.0253C187.142 68.7241 187.206 68.4013 187.206 68.0753C187.206 67.7493 187.142 67.4265 187.017 67.1253C186.892 66.8241 186.709 66.5504 186.479 66.3199C186.248 66.0894 185.974 65.9065 185.673 65.7817C185.372 65.657 185.049 65.5928 184.723 65.5928H174.794Z"
      fill="#FFA217" />
    <path d="M187.206 60.7778H72.5804V61.4312H187.206V60.7778Z" fill="#E6E6E6" />
    <path
      d="M48.6203 66.4194C56.6057 66.4194 63.0791 59.946 63.0791 51.9607C63.0791 43.9753 56.6057 37.502 48.6203 37.502C40.635 37.502 34.1616 43.9753 34.1616 51.9607C34.1616 59.946 40.635 66.4194 48.6203 66.4194Z"
      fill="#E6E6E6" />
    <path
      d="M72.7629 57.1304L72.4008 56.5869L84.3119 48.6462L92.4795 52.5671L104.228 45.061L104.387 45.1286L127.599 55.0306L146.21 45.8881L164.282 53.215L186.991 57.831L187.424 58.3201L164.412 53.9728L146.235 46.603L127.617 55.7483L104.288 45.7969L92.5241 53.3128L84.3635 49.3957L72.7629 57.1304Z"
      fill="#3F3D56" />
    <path
      d="M74.7033 65.9353C74.1463 65.9443 73.6151 66.1719 73.2244 66.569C72.8336 66.966 72.6146 67.5008 72.6146 68.0579C72.6146 68.615 72.8336 69.1498 73.2244 69.5468C73.6151 69.9439 74.1463 70.1715 74.7033 70.1805H96.9099C97.4723 70.1888 98.0151 69.9735 98.419 69.5818C98.8228 69.1902 99.0547 68.6544 99.0637 68.0919C99.0728 67.5294 98.8582 66.9864 98.4671 66.582C98.076 66.1777 97.5404 65.9451 96.978 65.9353C96.9553 65.935 96.9326 65.935 96.9099 65.9353H74.7033Z"
      fill="#E6E6E6" />
    <path
      d="M54.4362 51.7815C54.2736 51.6189 54.0531 51.5275 53.8231 51.5275C53.5931 51.5275 53.3726 51.6188 53.2099 51.7814L49.4875 55.5039V46.3248C49.4855 46.096 49.3934 45.8773 49.2309 45.7163C49.0685 45.5552 48.8491 45.4648 48.6203 45.4648C48.3916 45.4648 48.1721 45.5552 48.0097 45.7163C47.8473 45.8773 47.7551 46.096 47.7532 46.3248V55.5039L44.0308 51.7815C43.8684 51.619 43.6483 51.5276 43.4187 51.5273C43.189 51.527 42.9686 51.6178 42.8058 51.7797C42.6431 51.9417 42.5512 52.1616 42.5503 52.3912C42.5494 52.6209 42.6397 52.8414 42.8013 53.0046L42.8044 53.0077L48.0072 58.2105C48.1698 58.3731 48.3904 58.4644 48.6203 58.4644C48.8503 58.4644 49.0709 58.3731 49.2335 58.2105L54.4362 53.0077C54.5988 52.8451 54.6902 52.6246 54.6902 52.3946C54.6902 52.1646 54.5988 51.9441 54.4362 51.7815Z"
      fill="white" />
    <path
      d="M92.7614 106.766C92.3641 106.766 91.9832 106.924 91.7022 107.205C91.4213 107.486 91.2633 107.867 91.2628 108.264V159.377C91.2633 159.775 91.4213 160.155 91.7022 160.436C91.9832 160.717 92.3641 160.875 92.7614 160.876H267.049C267.446 160.875 267.827 160.717 268.108 160.436C268.389 160.155 268.547 159.775 268.548 159.377V108.264C268.547 107.867 268.389 107.486 268.108 107.205C267.827 106.924 267.446 106.766 267.049 106.766H92.7614Z"
      fill="#E6E6E6" />
    <path d="M95.0183 157.121H264.792V110.521H95.0183V157.121Z" fill="white" />
    <path
      d="M243.362 147.454C242.704 147.454 242.072 147.716 241.607 148.181C241.141 148.647 240.88 149.278 240.88 149.937C240.88 150.595 241.141 151.226 241.607 151.692C242.072 152.158 242.704 152.419 243.362 152.419H253.291C253.949 152.419 254.58 152.158 255.046 151.692C255.512 151.226 255.773 150.595 255.773 149.937C255.773 149.278 255.512 148.647 255.046 148.181C254.58 147.716 253.949 147.454 253.291 147.454H243.362Z"
      fill="#FFA217" />
    <path d="M255.774 142.638H141.149V143.292H255.774V142.638Z" fill="#E6E6E6" />
    <path
      d="M117.188 148.28C125.173 148.28 131.647 141.806 131.647 133.821C131.647 125.836 125.173 119.362 117.188 119.362C109.203 119.362 102.729 125.836 102.729 133.821C102.729 141.806 109.203 148.28 117.188 148.28Z"
      fill="#FFA217" />
    <path
      d="M141.33 138.991L140.967 138.448L152.879 130.507L161.047 134.428L172.795 126.922L172.954 126.989L196.166 136.891L214.777 127.749L232.85 135.075L255.558 114.962L255.991 115.451L232.979 135.831L214.802 128.462L196.185 137.607L172.856 127.656L161.092 135.172L152.933 131.257L141.33 138.991Z"
      fill="#3F3D56" />
    <path
      d="M143.272 147.795C142.709 147.786 142.165 148.001 141.761 148.392C141.356 148.784 141.124 149.32 141.115 149.883C141.105 150.446 141.32 150.99 141.712 151.394C142.103 151.799 142.64 152.031 143.203 152.04C143.226 152.041 143.249 152.041 143.272 152.04H165.478C166.035 152.031 166.566 151.804 166.957 151.407C167.348 151.01 167.567 150.475 167.567 149.918C167.567 149.361 167.348 148.826 166.957 148.429C166.566 148.032 166.035 147.804 165.478 147.795H143.272Z"
      fill="#E6E6E6" />
    <path
      d="M111.372 134C111.453 134.081 111.548 134.145 111.654 134.188C111.759 134.232 111.872 134.254 111.985 134.254C112.099 134.254 112.212 134.232 112.317 134.188C112.422 134.145 112.518 134.081 112.599 134L116.321 130.278V139.457C116.321 139.687 116.412 139.908 116.575 140.07C116.738 140.233 116.958 140.324 117.188 140.324C117.418 140.324 117.639 140.233 117.801 140.07C117.964 139.908 118.055 139.687 118.055 139.457V130.278L121.778 134C121.858 134.081 121.954 134.145 122.059 134.188C122.164 134.232 122.277 134.254 122.391 134.254C122.505 134.254 122.618 134.232 122.723 134.188C122.828 134.145 122.924 134.081 123.004 134C123.085 133.92 123.148 133.824 123.192 133.719C123.236 133.614 123.258 133.501 123.258 133.387C123.258 133.273 123.236 133.161 123.192 133.055C123.148 132.95 123.085 132.855 123.004 132.774L117.801 127.571C117.639 127.409 117.418 127.317 117.188 127.317C116.958 127.317 116.738 127.409 116.575 127.571L111.372 132.774C111.21 132.937 111.118 133.157 111.118 133.387C111.118 133.617 111.21 133.838 111.372 134Z"
      fill="white" />
    <path
      d="M1.49857 188.626C1.10126 188.626 0.720351 188.784 0.439409 189.065C0.158467 189.346 0.000436367 189.727 0 190.125V241.238C0.000436367 241.635 0.158467 242.016 0.439409 242.297C0.720351 242.578 1.10126 242.736 1.49857 242.736H175.786C176.183 242.736 176.564 242.578 176.845 242.297C177.126 242.016 177.284 241.635 177.284 241.238V190.125C177.284 189.727 177.126 189.346 176.845 189.065C176.564 188.784 176.183 188.626 175.786 188.626H1.49857Z"
      fill="#E6E6E6" />
    <path d="M3.75549 238.981H173.529V192.38H3.75549V238.981Z" fill="white" />
    <path
      d="M152.099 229.314C151.44 229.314 150.809 229.576 150.343 230.041C149.878 230.507 149.616 231.138 149.616 231.796C149.616 232.455 149.878 233.086 150.343 233.552C150.809 234.017 151.44 234.279 152.099 234.279H162.028C162.687 234.279 163.318 234.017 163.784 233.552C164.249 233.086 164.511 232.455 164.511 231.796C164.511 231.138 164.249 230.507 163.784 230.041C163.318 229.576 162.687 229.314 162.028 229.314H152.099Z"
      fill="#FFA217" />
    <path d="M164.511 224.499H49.8854V225.152H164.511V224.499Z" fill="#E6E6E6" />
    <path
      d="M25.9253 230.14C33.9106 230.14 40.384 223.666 40.384 215.681C40.384 207.696 33.9106 201.222 25.9253 201.222C17.9399 201.222 11.4666 207.696 11.4666 215.681C11.4666 223.666 17.9399 230.14 25.9253 230.14Z"
      fill="#FFA217" />
    <path
      d="M50.0667 220.852L49.7046 220.308L61.6157 212.367L69.7834 216.288L81.5323 208.78L104.903 218.749L123.514 209.606L141.584 216.935L164.292 207.813L164.725 208.302L141.716 217.693L123.54 210.324L104.922 219.469L81.5933 209.518L69.8295 217.034L61.669 213.117L50.0667 220.852Z"
      fill="#3F3D56" />
    <path
      d="M52.0081 229.655C51.4511 229.664 50.9199 229.892 50.5292 230.289C50.1384 230.686 49.9194 231.221 49.9194 231.778C49.9194 232.335 50.1384 232.869 50.5292 233.267C50.9199 233.664 51.4511 233.891 52.0081 233.9H74.2147C74.4934 233.905 74.7703 233.854 75.0296 233.752C75.2888 233.649 75.5254 233.497 75.7257 233.303C75.926 233.109 76.0862 232.878 76.197 232.622C76.3079 232.366 76.3673 232.091 76.3718 231.812C76.3764 231.533 76.3259 231.257 76.2235 230.997C76.121 230.738 75.9685 230.501 75.7746 230.301C75.5807 230.101 75.3492 229.941 75.0934 229.83C74.8377 229.719 74.5625 229.66 74.2838 229.655C74.2608 229.655 74.2377 229.655 74.2147 229.655H52.0081Z"
      fill="#E6E6E6" />
    <path
      d="M20.1093 215.86C20.1898 215.941 20.2854 216.005 20.3906 216.048C20.4958 216.092 20.6086 216.114 20.7224 216.114C20.8363 216.114 20.9491 216.092 21.0543 216.048C21.1595 216.005 21.2551 215.941 21.3356 215.86L25.0581 212.138V221.317C25.0591 221.546 25.1506 221.765 25.3125 221.927C25.4744 222.088 25.6936 222.179 25.9225 222.18C26.1513 222.181 26.3711 222.091 26.5341 221.931C26.697 221.77 26.7899 221.551 26.7924 221.322V212.138L30.5148 215.86C30.677 216.023 30.8973 216.115 31.1273 216.116C31.3573 216.116 31.5781 216.026 31.7411 215.863C31.9041 215.701 31.9961 215.481 31.9967 215.251C31.9972 215.021 31.9065 214.8 31.7443 214.637L31.7411 214.634L26.5384 209.431C26.3758 209.269 26.1552 209.177 25.9252 209.177C25.6953 209.177 25.4747 209.269 25.3121 209.431L20.1093 214.634C20.0288 214.714 19.9649 214.81 19.9214 214.915C19.8778 215.02 19.8553 215.133 19.8553 215.247C19.8553 215.361 19.8778 215.474 19.9214 215.579C19.9649 215.684 20.0288 215.78 20.1093 215.86Z"
      fill="white" />
    <path d="M357.427 366.694L349.058 366.693L345.077 334.416L357.428 334.416L357.427 366.694Z"
      fill="#FFB7B7" />
    <path
      d="M359.561 374.806L332.577 374.805V374.463C332.578 371.678 333.684 369.007 335.654 367.037C337.623 365.068 340.295 363.961 343.08 363.961H343.081L359.561 363.962L359.561 374.806Z"
      fill="#2F2E41" />
    <path d="M326.71 366.694L318.342 366.693L314.36 334.416L326.712 334.416L326.71 366.694Z"
      fill="#FFB7B7" />
    <path
      d="M328.844 374.806L301.861 374.805V374.463C301.861 371.678 302.968 369.007 304.937 367.037C306.907 365.068 309.578 363.961 312.364 363.961H312.364L328.845 363.962L328.844 374.806Z"
      fill="#2F2E41" />
    <path
      d="M310.937 261.999C311.662 261.407 312.248 260.663 312.654 259.82C313.061 258.977 313.277 258.056 313.289 257.12C313.3 256.184 313.107 255.257 312.721 254.405C312.336 253.552 311.768 252.794 311.058 252.185L315.607 238.284L307.833 233.459L301.685 253.18C300.74 254.441 300.291 256.004 300.421 257.574C300.552 259.144 301.254 260.612 302.394 261.699C303.535 262.786 305.034 263.417 306.609 263.472C308.183 263.527 309.723 263.003 310.937 261.999Z"
      fill="#FFB7B7" />
    <path
      d="M319.23 252.822C319.23 252.822 311.419 295.103 311.516 303.311C311.634 313.215 316.04 355.661 316.04 355.661L327.26 352.856L329.381 303.658L338.255 272.259L341.667 312.532L345.093 354.895H358.109L361.025 248.614L318.528 247.212L319.23 252.822Z"
      fill="#2F2E41" />
    <path
      d="M358.148 167.622L335.709 168.323L321.684 255.276C321.684 255.276 351.486 268.95 364.109 259.133C376.731 249.316 358.148 167.622 358.148 167.622Z"
      fill="#CBCBCB" />
    <path
      d="M338.864 186.204L319.931 294.895L308.01 291.389L316.425 252.12L320.632 212.851L319.931 173.582L334.657 167.271L338.864 162.362C338.864 162.362 347.279 172.881 338.864 186.204Z"
      fill="#2F2E41" />
    <path
      d="M348.681 183.551L350.084 297.7L378.834 292.792L376.731 186.905L379.536 172.18L365.511 165.868L359.832 162.362C359.832 162.362 347.279 166.172 348.681 183.551Z"
      fill="#2F2E41" />
    <path
      d="M326.242 175.686L319.931 173.583L310.815 214.254L303.101 246.511L314.321 248.614L324.839 213.553L326.242 175.686Z"
      fill="#2F2E41" />
    <path
      d="M389.462 268.824C388.738 268.232 388.151 267.489 387.745 266.646C387.339 265.803 387.122 264.881 387.111 263.946C387.099 263.01 387.293 262.083 387.678 261.23C388.064 260.378 388.631 259.62 389.341 259.01L384.793 245.109L392.566 240.285L398.714 260.006C399.659 261.267 400.109 262.83 399.978 264.4C399.847 265.97 399.145 267.438 398.005 268.524C396.865 269.611 395.365 270.242 393.791 270.298C392.216 270.353 390.676 269.829 389.462 268.824Z"
      fill="#FFB7B7" />
    <path
      d="M373.475 174.321L379.786 172.217L388.902 212.889L397.298 253.336L384.67 255.194L374.878 212.187L373.475 174.321Z"
      fill="#2F2E41" />
    <path
      d="M355.944 156.627C363.497 152.499 366.273 143.029 362.144 135.476C358.015 127.923 348.545 125.147 340.992 129.276C333.439 133.404 330.664 142.874 334.792 150.427C338.921 157.98 348.391 160.756 355.944 156.627Z"
      fill="#FFB7B7" />
    <path
      d="M387.317 375.155H260.925C260.779 375.155 260.639 375.097 260.536 374.994C260.433 374.891 260.375 374.751 260.375 374.605C260.375 374.459 260.433 374.32 260.536 374.217C260.639 374.114 260.779 374.056 260.925 374.056H387.317C387.463 374.056 387.603 374.114 387.706 374.217C387.809 374.32 387.867 374.459 387.867 374.605C387.867 374.751 387.809 374.891 387.706 374.994C387.603 375.097 387.463 375.155 387.317 375.155Z"
      fill="#CBCBCB" />
    <path
      d="M343.034 122.557C357.933 118.26 362.163 130.609 362.163 130.609C369.345 135.374 364.848 141.348 364.848 141.348C366.66 141.751 363.037 152.355 361.829 152.087C361.184 151.944 359.526 153.923 358.12 155.799C357.638 155.799 357.157 155.845 356.684 155.937L359.412 145.845C359.412 145.845 350.217 144.437 347.397 140.007C344.7 135.769 335.821 134.431 333.294 137.262C333.145 136.448 332.839 135.671 332.393 134.974C332.048 134.444 331.597 133.992 331.068 133.645C333.302 124.151 343.034 122.557 343.034 122.557Z"
      fill="#2F2E41" />
  </g>
  <defs>
    <clipPath id="clip0_209_2112">
      <rect width="400" height="400" fill="white" />
    </clipPath>
  </defs>
</svg>